<?xml version="1.0" encoding="utf-8"?>
<!DOCTYPE svg PUBLIC "-//W3C//DTD SVG 1.0//EN" "http://www.w3.org/TR/2001/REC-SVG-20010904/DTD/svg10.dtd">
<svg version="1.0" xmlns="http://www.w3.org/2000/svg" width="391px" height="391px" viewBox="0 0 391 391" preserveAspectRatio="xMidYMid meet">
 <g fill="#fffef6">
  <path d="M125.25 256.95 c-0.20 -1.65 -0.25 -3.15 -0.10 -3.30 0.20 -0.15 1.30 -0.40 2.60 -0.50 1.45 -0.20 2.25 -0.50 2.25 -0.95 0 -0.45 0.60 -0.70 1.75 -0.70 1.40 0 1.75 0.20 1.75 1 0 0.55 0.25 1 0.50 1 0.30 0 0.50 1 0.50 2.25 0 1.95 -0.15 2.25 -1.25 2.55 -0.70 0.15 -1.95 0.20 -2.75 0 -1.25 -0.25 -1.50 -0.10 -1.50 0.70 0 0.80 -0.35 1 -1.70 1 l-1.70 0 -0.35 -3.05z"/>
  <path d="M329.15 245.65 c-1.55 -0.20 -1.65 -0.35 -1.65 -2.20 l0 -1.95 2.95 0 c3.20 0 3.55 0.30 3.55 3.05 0 1.55 -0.40 1.65 -4.85 1.10z"/>
  <path d="M344.65 239.70 c-0.15 -0.40 -0.70 -0.70 -1.20 -0.70 -0.50 0 -0.95 -0.35 -0.95 -0.75 0 -0.40 -0.20 -0.75 -0.50 -0.75 -0.25 0 -0.50 0.35 -0.50 0.75 0 0.50 -0.55 0.75 -1.75 0.75 -1.65 0 -1.75 -0.10 -1.75 -1.75 0 -0.95 0.20 -1.75 0.45 -1.75 0.75 0 1.60 -5.90 1.25 -8.95 -0.30 -2.70 -0.20 -3.05 0.75 -3.65 0.65 -0.40 1.05 -1.15 1.05 -1.95 0 -1.40 0.95 -1.95 3.65 -1.95 1.30 0 1.35 0.05 1.35 3 0 2.70 -0.10 3 -1.05 3 -0.95 0 -1 0.20 -0.65 2.40 0.35 2.50 0.70 3.40 0.70 1.80 0 -1.45 3.75 -5.15 5.55 -5.55 0.85 -0.15 1.65 -0.60 1.80 -0.95 0.30 -0.80 5.65 -1 5.65 -0.20 0 0.30 0.55 0.50 1.20 0.50 0.65 0 1.35 0.30 1.45 0.65 0.20 0.50 0.30 0.50 0.30 0 0.05 -0.40 0.75 -0.65 1.80 -0.65 1.65 0 1.75 0.10 1.75 1.75 0 0.95 -0.20 1.75 -0.40 1.75 -0.25 0 -0.40 1.80 -0.40 4 0.05 3.80 0.10 4 1.20 4 0.60 0 1.10 0.25 1.10 0.50 0 0.30 0.55 0.50 1.25 0.50 1.10 0 1.25 0.20 1.25 2 0 1.70 -0.15 2 -1.30 2.30 -1.75 0.45 -9.80 -0.20 -10.20 -0.80 -0.40 -0.70 -4 0 -4 0.75 0 0.95 -8.45 0.90 -8.85 -0.05z"/>
  <path d="M150.50 237.25 c0 -1.65 0.10 -1.75 1.75 -1.75 1.65 0 1.75 0.10 1.75 1.75 0 1.65 -0.10 1.75 -1.75 1.75 -1.65 0 -1.75 -0.10 -1.75 -1.75z"/>
  <path d="M270.60 209.15 c-0.60 -0.10 -1.90 -1 -2.90 -1.95 -2.20 -2.05 -5.20 -2.45 -5.20 -0.70 0 0.80 -0.35 1 -1.75 1 -1.95 0 -2.05 -0.35 -1.45 -4.10 0.30 -1.80 0.40 -1.90 2.25 -1.90 1.40 0 1.95 -0.20 1.95 -0.75 0 -0.45 -0.45 -0.75 -1.25 -0.75 -0.90 0 -1.25 -0.25 -1.25 -1 0 -0.55 -0.20 -1 -0.50 -1 -0.25 0 -0.50 -0.80 -0.50 -1.75 0 -1.65 0.10 -1.75 1.75 -1.75 1.40 0 1.75 0.20 1.75 1 0 0.55 0.35 1 0.75 1 0.40 0 0.75 0.35 0.75 0.75 0 0.40 0.45 0.75 1 0.75 0.80 0 1 0.35 1 1.75 0 1.20 0.25 1.75 0.75 1.75 0.40 0 0.75 0.25 0.75 0.50 0 0.30 0.45 0.50 1 0.50 0.60 0 1.60 0.55 2.30 1.25 0.70 0.70 1.85 1.25 2.60 1.25 2.95 0 3.60 0.50 3.60 2.55 l0 1.95 -3.10 -0.05 c-1.75 -0.05 -3.65 -0.20 -4.30 -0.30z"/>
  <path d="M207 203.50 c0 -0.25 -0.55 -0.50 -1.20 -0.50 -1.20 0 -1.80 -1.05 -1.80 -3.35 0 -0.65 -0.25 -1.15 -0.55 -1.15 -0.40 0 -0.45 -4.25 -0.25 -14.85 0.35 -17.35 0.65 -21.15 1.60 -21.15 0.40 0 0.70 -0.35 0.70 -0.75 0 -0.50 0.55 -0.75 1.75 -0.75 l1.75 0 0 19.75 c0 17.20 0.10 19.75 0.75 19.75 0.50 0 0.75 0.55 0.75 1.75 0 1.65 -0.10 1.75 -1.75 1.75 -0.95 0 -1.75 -0.20 -1.75 -0.50z"/>
  <path d="M313 202.25 l0 -1.75 2.75 0 2.75 0 0 1.75 0 1.75 -2.75 0 -2.75 0 0 -1.75z"/>
  <path d="M338 202.25 l0 -1.75 3 0 3 0 0 1.75 0 1.75 -3 0 -3 0 0 -1.75z"/>
  <path d="M349.60 203.40 c-0.35 -0.35 -0.60 -1.35 -0.60 -2.25 0 -1.60 0.05 -1.65 2.20 -1.65 2.40 0 2.80 0.45 2.80 3.05 0 1.35 -0.15 1.45 -1.90 1.45 -1.05 0 -2.15 -0.25 -2.50 -0.60z"/>
  <path d="M366 202.25 c0 -1.75 0 -1.75 2.25 -1.75 1.65 0 2.25 -0.20 2.25 -0.75 0 -0.50 0.55 -0.75 1.75 -0.75 1.65 0 1.75 0.10 1.75 1.75 0 1.20 -0.25 1.75 -0.75 1.75 -0.40 0 -0.75 0.35 -0.75 0.75 0 0.60 -0.70 0.75 -3.25 0.75 l-3.25 0 0 -1.75z"/>
  <path d="M244 196.75 c0 -3.85 -0.10 -4.25 -0.95 -4.25 -0.55 0 -1.15 -0.20 -1.30 -0.50 -0.15 -0.25 -0.85 -0.50 -1.55 -0.50 -1.05 0 -1.20 -0.20 -1.20 -1.95 0 -1.10 0.25 -2.05 0.50 -2.15 0.70 -0.20 0.75 -8.65 0.05 -11.15 -0.30 -1.10 -1.25 -3.20 -2.05 -4.70 -0.85 -1.50 -1.50 -3.10 -1.50 -3.65 0 -0.65 -0.35 -0.90 -1.25 -0.90 -0.70 0 -1.25 -0.20 -1.25 -0.45 0 -0.80 -6.25 -3.50 -8.95 -3.85 l-2.55 -0.35 0 -2 0 -2 2.90 0.35 c5.65 0.65 8.60 1.40 9.70 2.55 1.95 1.95 2.40 2.65 2.40 3.75 0 0.70 0.35 1 1.20 1 1.65 0 3.80 1.85 3.80 3.25 0 0.95 0.80 1.75 1.80 1.75 0.10 0 0.20 -0.65 0.20 -1.50 0 -0.80 0.20 -1.50 0.50 -1.50 0.25 0 0.60 -0.80 0.80 -1.75 0.30 -1.60 0.45 -1.75 2 -1.75 1.35 0 1.70 0.20 1.70 1 0 0.80 0.35 1 1.75 1 1.40 0 1.75 -0.20 1.75 -1 0 -0.80 0.35 -1 1.75 -1 1.50 0 1.75 0.15 1.75 1.15 0 0.60 0.45 1.40 1 1.75 0.70 0.40 1 1.15 1 2.35 0 1.10 -0.40 2.15 -1 2.75 -1.05 1.05 -3.70 1.35 -4.25 0.50 -0.15 -0.25 -1.25 -0.50 -2.35 -0.50 l-2.05 0 0.30 10.15 c0.15 5.55 0.15 12 0 14.25 l-0.30 4.10 -2.15 0 -2.20 0 0 -4.25z"/>
  <path d="M310.50 199 c0 -0.60 -0.35 -1 -0.80 -1 -0.70 0 -0.75 -0.80 -0.60 -6.35 0.10 -4.50 0.35 -6.40 0.80 -6.55 0.70 -0.20 0.80 -1.60 0.10 -1.60 -0.25 0 -0.50 -1.20 -0.50 -2.70 0 -2.90 0.35 -3.30 3.05 -3.30 l1.45 0 0 11.25 0 11.25 -1.75 0 c-1.40 0 -1.75 -0.20 -1.75 -1z"/>
  <path d="M318 188.25 l0 -11.25 1.75 0 1.75 0 0.05 3.15 c0 1.70 0.15 6.05 0.25 9.60 0.15 3.60 0.15 7.25 -0.05 8.15 -0.25 1.45 -0.45 1.60 -2 1.60 l-1.75 0 0 -11.25z"/>
  <path d="M153.50 194.75 c0 -1.65 0.10 -1.75 1.75 -1.75 1.65 0 1.75 0.10 1.75 1.75 0 1.65 -0.10 1.75 -1.75 1.75 -1.65 0 -1.75 -0.10 -1.75 -1.75z"/>
  <path d="M213.90 196.15 c-0.10 -0.25 -0.10 -6.85 0 -14.75 0.25 -16.45 -0.35 -14.90 5.75 -14.90 l3.35 0 0 1.75 0 1.75 -2.75 0 -2.80 0 0.35 2.65 c0.45 3.35 0.70 3.65 0.70 0.65 l0 -2.35 2.10 0.15 c1.90 0.15 2.15 0.30 2.60 1.80 0.25 0.85 0.70 1.60 1 1.60 1.25 0 3.30 1.30 3.30 2.10 0 0.50 0.45 0.90 1.15 1 0.95 0.15 1.10 0.50 1.25 2.80 0.10 2.10 0 2.60 -0.60 2.60 -1.10 0 -1 1.15 0.20 1.90 0.55 0.35 1 1.05 1 1.60 0 0.80 0.35 1 1.75 1 1.65 0 1.75 0.10 1.75 1.75 0 1.45 -0.40 2.20 -2.20 3.95 -1.80 1.70 -2.80 2.25 -5.10 2.70 -3.20 0.65 -12.55 0.80 -12.80 0.25z m9.25 -4.50 c-1.45 -0.30 -1.90 -1.90 -1.45 -5.40 0.15 -1.45 0.15 -4 0 -5.70 -0.30 -2.75 -0.45 -3.05 -1.50 -3.05 -0.65 0 -1.20 -0.35 -1.30 -0.85 -0.10 -0.50 -0.35 1 -0.55 3.30 -0.40 4.85 0.70 11.05 1.95 11.05 0.40 0 0.70 0.25 0.70 0.50 0 0.30 0.75 0.45 1.65 0.45 1.15 -0.05 1.30 -0.15 0.50 -0.30z"/>
  <path d="M269.90 195.90 c-1.20 -0.40 -1.40 -0.75 -1.40 -2.45 0 -1.90 0.05 -1.95 1.75 -1.95 0.95 0 1.75 0.25 1.75 0.50 0 0.30 1.40 0.50 3.25 0.50 l3.25 0 0 2 0 2 -3.60 -0.05 c-2 0 -4.25 -0.25 -5 -0.55z"/>
  <path d="M341 194.75 c0 -1.40 0.20 -1.75 1 -1.75 0.65 0 1 -0.35 1 -1 0 -0.80 0.35 -1 1.80 -1 2.20 0 3.20 0.95 3.20 2.95 0 1.45 -0.15 1.55 -1.75 1.55 -0.95 0 -1.75 0.25 -1.75 0.50 0 0.30 -0.80 0.50 -1.75 0.50 -1.65 0 -1.75 -0.10 -1.75 -1.75z"/>
  <path d="M335.35 194.60 c-0.50 -0.50 -0.85 -1.30 -0.85 -1.75 0 -0.45 -0.35 -0.85 -0.75 -0.85 -0.50 0 -0.75 -0.55 -0.75 -1.75 0 -1.65 0.10 -1.75 1.75 -1.75 1.20 0 1.75 0.25 1.75 0.75 0 0.40 0.45 0.75 1 0.75 0.55 0 1 0.35 1 0.75 0 0.40 0.35 0.75 0.75 0.75 0.55 0 0.75 0.55 0.75 2 0 2 0 2 -1.90 2 -1.25 0 -2.25 -0.35 -2.75 -0.90z"/>
  <path d="M324.65 193 c-1.30 -0.55 -1.85 -2.70 -1.40 -5.75 l0.35 -2.25 2.15 0 2.10 0 0.35 2.40 c1 6.70 1.10 6.10 -0.75 6.05 -0.95 0 -2.20 -0.20 -2.80 -0.45z"/>
  <path d="M347.80 186.90 c-0.50 -2.30 -0.80 -4.95 -0.70 -5.90 0.15 -1.60 0.30 -1.75 1.90 -1.90 1.60 -0.15 1.80 0 2.65 1.90 0.85 2.05 1.10 5.60 0.55 8.45 -0.30 1.35 -0.55 1.55 -1.90 1.55 -1.55 0 -1.60 0 -2.50 -4.10z"/>
  <path d="M264 186.25 l0 -3.25 1.75 0 1.75 0 0 3.25 0 3.25 -1.75 0 -1.75 0 0 -3.25z"/>
  <path d="M272.40 189.15 c-1.15 -0.30 -2.55 -3.45 -2.30 -5.35 0.20 -1.80 -0.55 -2.80 -2.10 -2.80 -0.80 0 -1 -0.30 -1 -1.75 0 -1.20 0.25 -1.75 0.75 -1.75 0.40 0 0.75 -0.20 0.75 -0.45 0 -1.90 9.15 -2 12.15 -0.10 2.30 1.45 3.35 2.85 3.35 4.55 0 1.40 -0.15 1.50 -1.75 1.50 -0.95 0 -1.75 -0.20 -1.75 -0.50 0 -0.25 -0.20 -0.50 -0.45 -0.50 -0.20 0 -0.60 1.40 -0.75 3.10 -0.20 1.75 -0.60 3.40 -0.90 3.75 -0.50 0.60 -4.15 0.80 -6 0.30z"/>
  <path d="M334.40 185.70 c-1.10 -0.55 -1.40 -1.10 -1.40 -2.45 0 -0.90 0.25 -1.85 0.50 -2 0.30 -0.15 0.50 -0.80 0.50 -1.45 0 -2.30 3.90 -4.30 8.50 -4.30 3.95 0 4.55 0.35 4.40 2.45 l-0.15 1.80 -4.10 0.15 c-3 0.10 -4.15 0.35 -4.35 0.85 -0.15 0.45 0.05 0.75 0.45 0.75 0.55 0 0.75 0.65 0.75 2.50 l0 2.50 -1.85 0 c-1.05 -0.05 -2.50 -0.40 -3.25 -0.80z"/>
  <path d="M357.50 181.75 l0 -3.75 1.75 0 1.75 0 0 3.75 0 3.75 -1.75 0 -1.75 0 0 -3.75z"/>
  <path d="M153.50 182.75 c0 -2.25 0 -2.25 1.75 -2.25 1.75 0 1.75 0 1.75 2.25 0 2.25 0 2.25 -1.75 2.25 -1.75 0 -1.75 0 -1.75 -2.25z"/>
  <path d="M231.15 180.15 c-0.35 -0.10 -0.65 -1 -0.65 -1.95 0 -1.70 0 -1.70 2.25 -1.70 l2.25 0 0 2 c0 1.95 -0.05 2 -1.60 1.95 -0.90 0 -1.95 -0.15 -2.25 -0.30z"/>
  <path d="M153.50 174.75 l0 -3.25 1.75 0 1.75 0 0 3.25 0 3.25 -1.75 0 -1.75 0 0 -3.25z"/>
  <path d="M259.50 177.15 c0 -0.50 0.15 -2.10 0.30 -3.50 0.30 -2.50 0.40 -2.65 1.75 -2.65 0.95 0 1.45 -0.25 1.45 -0.75 0 -0.90 1.75 -1.40 4.05 -1.15 1.55 0.15 1.70 0.30 1.85 2 0.10 1.45 -0.05 1.90 -0.80 2.10 -0.55 0.20 -1.60 0.90 -2.40 1.55 -0.80 0.70 -1.75 1.25 -2.05 1.25 -0.35 0 -0.65 0.45 -0.65 1 0 0.80 -0.35 1 -1.75 1 -1.35 0 -1.75 -0.20 -1.75 -0.85z"/>
  <path d="M302.50 175 l0 -2.50 -1.75 0 c-1.20 0 -1.75 0.25 -1.75 0.75 0 0.50 -0.50 0.75 -1.70 0.75 -1.55 0 -1.70 -0.15 -2 -1.75 -0.20 -1 -0.20 -2.80 0 -4 0.30 -2 0.45 -2.25 1.65 -2.25 2 0 3.55 0.55 3.55 1.25 0 0.35 0.55 0.80 1.25 0.95 1 0.25 1.25 0.65 1.25 1.80 0 1.35 0.15 1.50 1.50 1.50 1.15 0 1.50 0.20 1.50 1 0 0.80 0.35 1 1.50 1 1.35 0 1.50 0.15 1.50 1.70 0 1.60 -0.10 1.70 -2.30 2 -4.25 0.55 -4.20 0.60 -4.20 -2.20z"/>
  <path d="M228 172.75 l0 -3.25 1.65 0 c0.90 0 1.90 0.25 2.25 0.60 0.70 0.70 0.80 3.90 0.10 3.90 -0.25 0 -0.50 0.45 -0.50 1 0 0.80 -0.35 1 -1.75 1 l-1.75 0 0 -3.25z"/>
  <path d="M290 173.50 c0 -0.55 -0.20 -1 -0.50 -1 -0.25 0 -0.50 -0.90 -0.50 -2 0 -1.95 0.05 -2 1.75 -2 1.40 0 1.75 0.20 1.75 1 0 0.55 0.25 1 0.50 1 0.30 0 0.50 0.90 0.50 2 0 1.95 -0.05 2 -1.75 2 -1.40 0 -1.75 -0.20 -1.75 -1z"/>
  <path d="M350 174 c0 -0.25 -0.45 -0.50 -1 -0.50 -1.20 0 -3.50 -1.05 -3.50 -1.60 0 -0.20 -1.55 -0.40 -3.50 -0.40 -2 0 -3.50 0.20 -3.50 0.50 0 0.30 -0.55 0.50 -1.20 0.50 -0.65 0 -1.30 0.35 -1.50 0.75 -0.15 0.45 -0.95 0.75 -2.05 0.75 -1.70 0 -1.75 -0.05 -1.75 -1.80 0 -1.35 0.25 -1.85 1 -2.05 0.55 -0.15 1 -0.60 1 -0.95 0 -0.45 0.60 -0.70 1.75 -0.70 1.15 0 1.75 -0.25 1.75 -0.70 0 -0.55 1 -0.70 4.50 -0.70 3.50 0 4.50 0.15 4.50 0.70 0 0.55 1.15 0.70 5.50 0.70 l5.50 0 0 2 0 2 -2 0 c-1.65 0 -2 0.15 -2 1 0 0.80 -0.35 1 -1.75 1 -0.95 0 -1.75 -0.20 -1.75 -0.50z"/>
  <path d="M276.50 172.20 c-0.95 -0.35 -2.95 -0.65 -4.35 -0.65 l-2.65 -0.05 0 -2 0 -2 3.90 0.05 c2.10 0 5 0.30 6.35 0.60 2.50 0.60 2.50 0.60 2.65 2.75 l0.15 2.10 -2.15 -0.05 c-1.20 -0.05 -2.95 -0.35 -3.90 -0.75z"/>
  <path d="M309 170.45 l0 -2 2.40 0.15 c2.35 0.15 2.35 0.15 2.50 2.05 l0.15 1.85 -2.50 0 -2.55 0 0 -2.05z"/>
  <path d="M319.40 172.15 c-1.35 -0.20 -1.40 -0.30 -1.40 -3.70 l0 -3.45 1.75 0 c1.60 0 1.75 0.10 1.75 1.45 0 1.30 0.20 1.50 1.65 1.65 1.50 0.15 1.60 0.30 1.75 2.30 l0.15 2.10 -2.15 -0.05 c-1.20 -0.05 -2.75 -0.20 -3.50 -0.30z"/>
  <path d="M370.50 163.50 c0 -0.55 -0.20 -1 -0.50 -1 -0.25 0 -0.50 -0.90 -0.50 -2 0 -1.95 0.05 -2 1.75 -2 1.55 0 1.75 0.15 1.75 1.25 0 0.70 0.25 1.25 0.50 1.25 0.30 0 0.50 0.80 0.50 1.75 0 1.65 -0.10 1.75 -1.75 1.75 -1.40 0 -1.75 -0.20 -1.75 -1z"/>
  <path d="M132.85 130.15 c-0.20 -0.15 -0.35 -1.05 -0.35 -2 0 -1.65 0.05 -1.65 2.25 -1.65 1.60 0 2.25 -0.20 2.25 -0.70 0 -0.40 0.35 -0.80 0.75 -1 0.40 -0.15 0.75 -0.60 0.75 -1 0 -0.90 1.10 -1.30 3.55 -1.30 l2 0 -0.15 2.10 c-0.10 1.65 -0.35 2.20 -1.10 2.30 -0.55 0.15 -1.30 0.50 -1.70 0.90 -0.35 0.40 -1.45 0.70 -2.40 0.70 -1.35 0 -1.70 0.20 -1.70 1 0 0.85 -0.35 1 -1.90 1 -1.05 0 -2.10 -0.15 -2.25 -0.35z"/>
  <path d="M147.50 121.25 c0 -1.40 0.20 -1.75 1 -1.75 0.65 0 1 -0.35 1 -1 0 -0.75 0.35 -1 1.25 -1 0.70 0 1.25 -0.20 1.25 -0.50 0 -0.25 0.90 -0.50 2 -0.50 2 0 2 0 2 1.90 0 1.55 -0.25 2 -1.55 2.75 -0.85 0.45 -1.95 0.85 -2.50 0.85 -0.50 0 -0.95 0.25 -0.95 0.50 0 0.30 -0.80 0.50 -1.75 0.50 -1.65 0 -1.75 -0.10 -1.75 -1.75z"/>
 </g>
 <g fill="#fbfbf9">
  <path d="M0 195.50 l0 -195.50 195.50 0 195.50 0 0 195.50 0 195.50 -195.50 0 -195.50 0 0 -195.50z m123.50 114.35 c6.35 -2.15 10.50 -5.60 12.95 -10.80 l1.30 -2.80 0.15 -15.95 0.15 -15.95 -2.65 0.30 c-1.45 0.20 -3.25 0.35 -4 0.35 l-1.35 0 -0.15 5.40 -0.15 5.35 -48.10 0 c-26.45 0 -48.25 -0.20 -48.50 -0.40 -0.20 -0.25 -0.40 -38.70 -0.40 -85.50 l0 -85.10 48.65 -0.15 48.60 -0.10 0 9 c0 4.95 0.15 9 0.30 9 0.15 0 1.55 -0.75 3.10 -1.65 1.55 -0.90 3.25 -1.80 3.75 -2 0.75 -0.30 0.85 -1.30 0.85 -11.25 0 -13.75 -0.45 -15.45 -5.70 -21 -2.20 -2.35 -5.70 -4.15 -10.30 -5.35 -4.35 -1.10 -76.70 -1.10 -81.45 0 -6.55 1.55 -11.50 5.45 -14.20 11.15 l-1.60 3.35 -0.15 98 c-0.10 73.85 0 98.70 0.45 100.75 1.90 9.05 9.30 15.35 18.95 16.15 0.95 0.05 18.65 0.10 39.25 0.10 35.10 0 37.70 -0.05 40.25 -0.90z m65.40 -98.10 c0.10 -27.25 0 -51.60 -0.15 -54.10 l-0.35 -4.65 -3.05 2.10 c-1.70 1.10 -3.60 2.50 -4.20 3.05 l-1.15 1 0 46.95 c0 37.10 -0.15 47 -0.60 47.15 -0.35 0.10 -6.60 0.45 -13.90 0.75 -12.65 0.50 -20 1.25 -26 2.70 -2.50 0.60 -1.65 0.65 9.75 0.65 13.70 0.05 23.40 0.90 32.50 2.85 3.05 0.65 5.85 1.15 6.25 1.10 0.65 -0.05 0.75 -6 0.90 -49.55z m-74.90 38.85 c4.70 -3.45 10.80 -6.95 19.20 -11.05 4.40 -2.15 8.60 -4.10 9.25 -4.30 1.95 -0.60 10.45 -4.70 10.75 -5.20 0.25 -0.35 0.50 -75.80 0.35 -101.20 -0.05 -7.20 -0.10 -7.85 -0.85 -7.15 -0.40 0.45 -0.95 0.80 -1.20 0.80 -0.20 0 -1.95 0.90 -3.80 2 -1.90 1.10 -3.85 2 -4.30 2 -0.50 0 -0.90 0.20 -0.90 0.40 0 0.20 -0.60 0.65 -1.35 0.95 -1.40 0.55 -4.15 2.15 -4.65 2.65 -0.15 0.15 -1.95 1.35 -4 2.70 -11.75 7.70 -20.45 16.60 -25.05 25.70 -3.75 7.50 -3.60 5.40 -3.85 52.10 -0.10 22.95 0 43.35 0.15 45.35 l0.35 3.60 3.55 -3.65 c2 -2 4.85 -4.55 6.35 -5.70z m19 5.05 c0 -1 -1.20 -0.55 -1.40 0.50 -0.10 0.60 0.05 0.75 0.60 0.55 0.45 -0.15 0.80 -0.65 0.80 -1.05z m-4.35 -0.20 c-0.20 -0.75 -0.45 -0.85 -0.85 -0.45 -0.40 0.40 -0.35 0.65 0.20 1 0.40 0.25 0.80 0.50 0.85 0.50 0 0 -0.05 -0.45 -0.20 -1.05z m170.75 -2.30 c-0.80 -0.10 -2 -0.10 -2.75 0 -0.80 0.10 -0.15 0.20 1.35 0.20 1.50 0 2.15 -0.10 1.40 -0.20z m32.85 -3.65 l0 -4 -4.60 0 c-2.50 0 -4.75 0.25 -4.90 0.50 -0.20 0.30 1.10 0.50 3.45 0.50 l3.80 0 0 1.70 c0 0.90 -0.35 2.50 -0.75 3.50 l-0.75 1.80 1.85 0 1.90 0 0 -4z m-201.15 1.95 c2.20 -1.15 8.20 -2.75 17.40 -4.60 3.35 -0.70 16.45 -1.85 20.80 -1.85 l1.70 0 0 -53.50 0 -53.55 -3.85 2.85 c-2.15 1.55 -4 2.95 -4.15 3.05 -0.15 0.15 -0.35 21.05 -0.50 46.50 l-0.25 46.30 -9.75 4.10 c-11 4.60 -24.40 11.20 -22.85 11.25 0.25 0 0.90 -0.25 1.45 -0.55z m176.15 -5 c6.25 -0.10 5 -0.20 -7.25 -0.55 -14.30 -0.40 -16 -0.35 -16 0.45 0 0.40 6.65 0.40 23.25 0.10z m36.40 -0.30 c0.15 -0.25 -1.50 -0.40 -3.65 -0.40 -2.15 0 -3.80 0.15 -3.65 0.40 0.10 0.20 1.75 0.35 3.65 0.35 1.90 0 3.55 -0.15 3.65 -0.35z m17.55 -0.10 c0.25 -0.40 -6.20 -0.15 -6.65 0.25 -0.10 0.10 1.25 0.20 3.10 0.20 1.80 0 3.40 -0.20 3.55 -0.45z m9.05 -0.05 c-1.45 -0.60 -5.40 -0.60 -5 0 0.15 0.30 1.60 0.50 3.15 0.45 2.05 0 2.55 -0.15 1.85 -0.45z m-39.75 -2.50 c0 -0.25 -0.35 -0.50 -0.75 -0.50 -0.40 0 -0.75 0.25 -0.75 0.50 0 0.30 0.35 0.50 0.75 0.50 0.40 0 0.75 -0.20 0.75 -0.50z m36.15 -5.20 c1.15 -0.90 1.05 -1.30 -0.35 -1.30 -0.65 0 -1.30 -0.25 -1.40 -0.55 -0.10 -0.25 -0.75 0.10 -1.40 0.85 -0.70 0.75 -1 1.25 -0.75 1.10 0.30 -0.15 0.95 -0.10 1.50 0.15 1.35 0.50 1.35 0.50 2.40 -0.25z m-11.95 -1.25 c0.15 -0.20 1.50 -0.40 3.05 -0.40 2.95 0 4.60 -0.80 3.25 -1.65 -0.60 -0.40 -0.50 -0.50 0.40 -0.50 0.60 0 1.10 -0.20 1.10 -0.50 0 -0.25 -0.30 -0.50 -0.70 -0.50 -0.90 0 -1.70 -5.60 -0.85 -5.90 1 -0.35 0.60 -1.10 -0.55 -1.10 -0.85 0 -0.95 -0.15 -0.45 -0.45 0.50 -0.30 0.05 -0.55 -1.40 -0.80 -1.15 -0.20 -2.40 -0.70 -2.85 -1.10 -0.65 -0.65 -0.85 -0.70 -1.35 -0.05 -0.35 0.40 -1.55 1 -2.70 1.40 -1.30 0.40 -2.15 1 -2.35 1.60 -0.10 0.55 -0.45 0.85 -0.75 0.70 -0.50 -0.35 -1.20 0.50 -1.35 1.60 -0.10 0.35 0.20 0.80 0.60 0.95 0.45 0.15 0.60 0.80 0.45 2.05 -0.35 2.50 0.20 4.85 0.90 4.15 0.80 -0.80 1.85 -0.70 1.85 0.20 0 0.80 3.20 1.10 3.70 0.30z m-9.70 -1.80 c0 -0.40 0.30 -0.75 0.65 -0.80 0.50 0 0.50 -0.10 0 -0.30 -0.35 -0.10 -0.65 -0.55 -0.65 -0.95 0 -0.40 -0.45 -0.70 -0.95 -0.70 -0.80 0 -0.90 -0.30 -0.75 -2 0.15 -1.50 0 -2 -0.50 -2 -0.60 0 -0.60 -0.30 -0.15 -1.45 0.65 -1.70 0.10 -3.50 -0.75 -2.65 -0.35 0.35 -0.55 1.70 -0.45 3.10 0.05 1.35 -0.10 2.50 -0.35 2.50 -0.75 0 -1.25 2.60 -0.55 3 0.35 0.25 0.45 0.90 0.25 1.70 -0.30 1.25 -0.25 1.30 1.95 1.30 1.65 0 2.25 -0.20 2.25 -0.75z m-94.60 -3.85 c0.30 -0.30 0.60 -0.95 0.60 -1.45 0 -0.55 0.25 -0.95 0.50 -0.95 0.30 0 0.50 -0.45 0.50 -0.95 0 -0.55 0.40 -1.05 0.85 -1.15 0.70 -0.15 0.55 -0.45 -0.85 -1.50 -0.95 -0.70 -2.35 -1.50 -3.10 -1.65 -1.35 -0.35 -1.40 -0.30 -1.40 1.55 0 1.60 -0.25 2.15 -1.50 2.95 -1.50 1 -1.80 1.90 -1.20 3.50 0.25 0.65 0.75 0.75 2.65 0.45 1.25 -0.20 2.60 -0.55 2.95 -0.80z m94.35 -9.30 c0 -1.15 -0.20 -1.40 -0.85 -1.20 -0.50 0.10 -0.90 0.60 -0.90 1.10 0 0.50 0.40 1.05 0.90 1.15 0.45 0.15 0.85 0.25 0.85 0.30 0 0 0 -0.60 0 -1.35z m10.75 -0.65 c0 -0.25 -0.45 -0.45 -1 -0.45 -0.55 0 -1 0.30 -1 0.70 0 0.45 0.35 0.60 1 0.45 0.55 -0.15 1 -0.45 1 -0.70z m-74.75 -10.15 c3.10 -1.50 6.35 -4.80 7.85 -8.05 1.10 -2.40 1.15 -3.15 1.30 -16.60 l0.15 -14.15 -2 0 c-1.95 0 -2.05 0.10 -2.05 1.50 0 1.40 -0.15 1.50 -1.80 1.50 -1.90 0 -4.70 -1.60 -4.70 -2.70 0 -0.90 -5.95 -1.50 -7.75 -0.80 -0.70 0.25 -2.20 0.50 -3.30 0.50 -1.60 0 -1.95 0.15 -1.95 1 0 0.75 -0.35 1 -1.25 1 -0.90 0 -1.25 0.25 -1.25 0.90 0 0.55 -0.55 1.60 -1.25 2.40 -4.70 5.45 -3.10 14.60 3.55 20.15 1.20 1 5.50 2.55 7.15 2.55 1.95 0 5.10 -1.15 7.40 -2.70 1.05 -0.75 2.60 -1.30 3.50 -1.30 1.60 0 1.65 0.05 1.65 2.20 0 2.70 -1.15 6.15 -2.65 7.75 -2.15 2.35 -8.30 4.15 -8.40 2.45 0 -0.50 -0.10 -0.50 -0.30 0 -0.25 0.70 -3.05 0.80 -4.05 0.15 -0.40 -0.20 -0.95 -0.95 -1.30 -1.60 -0.40 -0.90 -1.20 -1.30 -2.95 -1.65 -1.35 -0.20 -2.55 -0.25 -2.70 -0.10 -0.45 0.45 3.25 4.20 5.10 5.15 3.85 2.05 8.35 2.20 12 0.45z m-4.25 -3.75 c0 -0.55 -2.40 -1.20 -3 -0.80 -1.05 0.65 -0.40 1.25 1.25 1.25 0.95 0 1.75 -0.20 1.75 -0.45z m-5.35 -1.10 c-0.30 -1.15 -2.50 -2.75 -3.05 -2.20 -0.25 0.25 2.65 3.25 3.20 3.25 0.05 0 0 -0.45 -0.15 -1.05z m-8.15 -2.95 c-1 -0.65 -2 -0.65 -2 0 0 0.30 0.60 0.50 1.40 0.50 1.05 0 1.20 -0.10 0.60 -0.50z m89.20 -1.75 c-0.20 -0.40 -0.65 -0.75 -1.05 -0.75 -0.65 0 -0.65 0.15 -0.15 0.75 0.35 0.40 0.80 0.75 1.05 0.75 0.25 0 0.30 -0.35 0.15 -0.75z m-144.80 -1.90 c0.20 -1.60 0.90 -1.75 1.35 -0.35 0.30 0.95 0.75 1 8.15 1 10.75 0 12.75 -0.60 17.10 -4.95 3.40 -3.45 5.50 -6.80 5.50 -8.85 0 -0.75 0.30 -1.20 0.80 -1.20 0.65 0 0.75 -0.30 0.50 -1.35 -0.75 -3.40 -0.90 -6.15 -0.40 -6.15 0.30 0 0.65 -0.50 0.75 -1.10 0.15 -0.80 0.25 -0.60 0.30 0.60 0.10 2.40 1.05 3.85 1.05 1.65 0 -0.95 0.35 -1.80 0.80 -2.05 1.35 -0.75 0.70 -3.20 -1.15 -4.35 -0.95 -0.60 -1.60 -1.40 -1.65 -2.05 0 -0.95 -0.90 -2.05 -2.30 -2.85 -0.35 -0.20 0.15 1.05 1.10 2.80 1.95 3.60 2.15 4.85 0.70 4.85 -0.85 0 -1 -0.35 -1 -2.25 0 -2.10 -0.15 -2.35 -2.35 -3.95 -1.35 -0.95 -2.75 -2.20 -3.15 -2.75 -0.40 -0.60 -1 -1.05 -1.30 -1.05 -0.30 0 -0.70 -0.45 -0.85 -0.95 -0.30 -1.25 -2.80 -1.60 -13.70 -1.85 l-8.65 -0.25 0 3.05 c0 2.35 -0.15 3 -0.75 3 -0.40 0 -0.75 -0.30 -0.75 -0.70 0 -1.20 -1.10 -1.50 -1.85 -0.50 -0.45 0.65 -0.65 2.10 -0.60 4.45 0.05 1.95 0 8.40 -0.15 14.40 -0.15 6 -0.05 10.85 0.15 10.85 0.25 0 0.45 0.70 0.45 1.50 0 1 0.25 1.50 0.75 1.50 0.85 0 1 0.80 0.25 1.15 -0.30 0.15 -0.25 0.20 0.10 0.15 0.35 -0.05 0.70 -0.75 0.80 -1.45z m45.60 -11.55 c0 -13.40 -0.25 -16.80 -1.30 -16.80 -0.40 0 -0.70 0.25 -0.70 0.50 0 0.30 -0.55 0.50 -1.25 0.50 -1.05 0 -1.25 0.25 -1.25 1.50 0 1 -0.25 1.50 -0.75 1.50 -0.40 0 -0.75 -0.35 -0.75 -0.75 0 -0.40 -0.35 -0.75 -0.75 -0.75 -0.60 0 -0.75 0.95 -0.75 5.50 l0 5.50 -1.50 0 c-1.35 0 -1.50 -0.15 -1.55 -1.60 0 -1.60 0 -1.65 -0.50 -0.40 -0.30 0.70 -0.40 2.45 -0.25 3.95 0.35 2.75 1.20 4 2.95 4.05 0.45 0 0.85 0.25 0.85 0.50 0 0.30 0.30 0.50 0.70 0.50 0.40 0 0.85 0.40 0.95 0.90 0.15 0.45 0.25 0.10 0.30 -0.75 0 -0.90 0.30 -1.65 0.55 -1.65 0.35 0 0.50 1.65 0.40 4.40 -0.05 2.40 0.05 4.65 0.30 5 0.20 0.30 1.25 0.60 2.35 0.60 l1.95 0 0 -12.20z m49.70 10.35 c0.40 -2.50 0.40 -20.15 0 -23.50 -0.35 -2.60 -0.35 -2.65 -2 -2.65 -2 0 -1.85 -1.60 -1.90 15.35 l-0.05 12.65 1.80 0 c1.70 0 1.85 -0.10 2.15 -1.85z m15.50 -0.75 c0.50 -3.80 0.50 -3.80 0.10 -13.50 l-0.35 -8.85 2.40 -0.15 c2.20 -0.15 2.40 -0.25 2.55 -1.50 0.15 -1.35 0.05 -1.40 -2.05 -1.40 -2.20 0 -2.25 -0.05 -2.55 -1.85 -0.15 -1.05 -0.30 -3.30 -0.30 -5 l0 -3.15 -2 0 -2 0 0 4.75 0 4.70 -2.50 0.35 c-2.35 0.30 -2.50 0.40 -2.50 1.75 0 1.30 0.15 1.40 2.40 1.55 l2.35 0.15 0.15 5 c0.15 5.45 -0.15 8.25 -0.90 8.25 -0.30 0 -0.50 -0.65 -0.50 -1.50 0 -1.15 -0.20 -1.40 -0.80 -1.15 -0.55 0.20 -0.60 0.40 -0.20 0.65 0.40 0.25 0.40 0.45 -0.15 0.65 -1.05 0.40 -1.25 8.85 -0.15 8.85 0.40 0 0.85 0.50 0.95 1.15 0.15 0.65 0.25 0.40 0.30 -0.75 0 -1.05 0.25 -1.90 0.50 -1.90 0.45 0 1.05 2.40 1.05 4.30 0 1.05 0.25 1.20 1.95 1.20 l1.90 0 0.35 -2.60z m27.95 1.80 c1.25 -0.40 2.55 -1.10 2.90 -1.50 0.30 -0.40 1.45 -0.70 2.50 -0.70 1.85 0 1.95 0.10 1.95 1.50 0 1.40 0.10 1.50 2 1.50 l2 0 0 -14 0 -14 -2 0 c-1.70 0 -2.05 0.20 -2.30 1.25 -0.45 1.85 -3.15 1.75 -4.75 -0.15 -0.95 -1.10 -1.90 -1.50 -4.45 -1.95 -1.80 -0.25 -3.30 -0.30 -3.40 -0.10 -0.10 0.25 -0.95 0.45 -1.85 0.45 -1.35 0 -2.30 0.55 -4.75 2.85 -4.55 4.20 -5.75 6.55 -5.70 11.15 0.05 4.45 1.05 6.70 4.30 9.80 4.40 4.25 8.80 5.50 13.55 3.90z m24.55 0 c0.40 -1.05 0.40 -26.15 -0.05 -32.30 l-0.30 -4.90 -1.95 0 -1.90 0 0 19 0 19 1.95 0 c1.30 0 2.05 -0.25 2.25 -0.80z m-123.70 -2.45 c0 -1.65 -0.20 -2.25 -0.75 -2.25 -0.40 0 -0.75 0.35 -0.75 0.75 0 0.40 0.25 0.75 0.50 0.75 0.30 0 0.50 0.35 0.50 0.75 0 0.40 -0.20 0.75 -0.50 0.75 -0.25 0 -0.50 0.35 -0.50 0.75 0 0.40 0.35 0.75 0.75 0.75 0.55 0 0.75 -0.60 0.75 -2.25z m73.15 -7.50 c-0.15 -3.55 -0.35 -6.60 -0.45 -6.70 -0.10 -0.10 -0.20 3.25 -0.15 7.50 0 4.70 0.20 7.30 0.45 6.70 0.25 -0.55 0.30 -3.90 0.15 -7.50z m6.70 0.25 c-0.55 -1.95 -1.55 -2.65 -2 -1.35 -0.35 1.10 0.25 2.40 1.35 2.85 0.55 0.25 1.05 0.45 1.10 0.45 0.05 0.05 -0.20 -0.85 -0.45 -1.95z m-0.35 -3 c0 -0.25 -0.35 -0.50 -0.75 -0.50 -0.40 0 -0.75 0.25 -0.75 0.50 0 0.30 0.35 0.50 0.75 0.50 0.40 0 0.75 -0.20 0.75 -0.50z m-14 -6.25 c0 -1.30 -0.15 -1.65 -0.75 -1.45 -1.35 0.55 -0.95 2.65 0.65 3.15 0.05 0.05 0.10 -0.75 0.10 -1.70z m7.35 -1.35 c-0.10 -0.65 -0.20 -0.25 -0.20 0.85 -0.05 1.10 0.05 1.60 0.20 1.15 0.10 -0.50 0.10 -1.40 0 -2z m-55.65 -6.50 c-0.45 -0.70 -2.70 -0.45 -2.70 0.30 0 0.40 0.30 0.80 0.65 0.95 0.75 0.25 2.35 -0.70 2.05 -1.25z m2.85 -2.05 c-0.65 -0.65 -2.55 0.05 -2.25 0.90 0.25 0.55 0.55 0.55 1.50 0.15 0.75 -0.35 1.05 -0.75 0.75 -1.05z m-18.95 0.15 c0.55 0 0.90 -0.25 0.80 -0.60 -0.25 -0.80 -3.40 -1.15 -3.40 -0.45 0 0.30 0.25 0.55 0.50 0.55 0.30 0 0.50 0.40 0.55 0.90 0 0.50 0.15 0.60 0.30 0.25 0.10 -0.35 0.70 -0.65 1.25 -0.65z m7.85 -1.80 c-0.30 -0.40 -0.90 -0.70 -1.30 -0.70 -0.40 0 -0.55 -0.20 -0.40 -0.50 0.15 -0.30 -0.05 -0.35 -0.45 -0.20 -0.45 0.15 -0.70 0.55 -0.65 0.85 0.05 0.30 -0.75 0.80 -1.75 1.05 -2.55 0.65 -2.40 1.30 0.30 1.30 1.25 0 2.35 0.20 2.55 0.50 0.15 0.25 0.75 0 1.30 -0.55 0.80 -0.80 0.90 -1.15 0.40 -1.75z m94.05 2.20 c0 -0.30 -0.15 -0.40 -0.35 -0.25 -0.15 0.20 -0.55 -0.05 -0.90 -0.50 -0.35 -0.50 -0.85 -0.65 -1.25 -0.40 -0.45 0.30 -0.30 0.55 0.55 1.05 1.50 0.85 1.95 0.85 1.95 0.10z m-69.10 -0.50 c-0.25 -0.70 -2.90 -1.50 -2.90 -0.90 0 0.55 1.50 1.45 2.40 1.50 0.40 0 0.60 -0.25 0.50 -0.60z m17.90 -1.40 c-0.05 -0.95 -0.35 -1.55 -0.95 -1.70 -0.75 -0.20 -0.90 0 -0.70 0.75 0.15 0.50 0.05 1.05 -0.20 1.20 -0.75 0.50 0.10 1.65 1 1.40 0.60 -0.15 0.90 -0.70 0.85 -1.65z m2.70 1.05 c0 -0.55 -1.30 -1.10 -1.70 -0.70 -0.60 0.60 -0.25 1.15 0.70 1.15 0.55 0 1 -0.20 1 -0.45z m10.75 -0.05 c-0.15 -0.25 -0.65 -0.50 -1.05 -0.50 -0.40 0 -0.70 0.25 -0.70 0.50 0 0.30 0.45 0.50 1.05 0.50 0.55 0 0.85 -0.20 0.70 -0.50z m11.15 -0.05 c-0.10 -0.30 -0.40 -0.50 -0.65 -0.50 -0.25 0 -0.55 0.20 -0.65 0.50 -0.10 0.30 0.20 0.55 0.65 0.55 0.45 0 0.75 -0.25 0.65 -0.55z m13.60 0.05 c0 -0.25 -0.35 -0.50 -0.75 -0.50 -0.40 0 -0.75 0.25 -0.75 0.50 0 0.30 0.35 0.50 0.75 0.50 0.40 0 0.75 -0.20 0.75 -0.50z m19 0 c0 -0.25 -0.55 -0.50 -1.25 -0.50 -0.70 0 -1.25 0.25 -1.25 0.50 0 0.30 0.55 0.50 1.25 0.50 0.70 0 1.25 -0.20 1.25 -0.50z m-83.50 -1 c0 -0.25 -0.35 -0.50 -0.75 -0.50 -0.40 0 -0.75 0.25 -0.75 0.50 0 0.30 0.35 0.50 0.75 0.50 0.40 0 0.75 -0.20 0.75 -0.50z m70 0.15 c-3.25 -1.05 -3.50 -1.10 -3.50 -0.35 0 0.50 0.60 0.70 2.15 0.65 1.15 0 1.75 -0.15 1.35 -0.30z m2.50 -0.45 c0 -0.70 -0.15 -0.70 -0.75 -0.20 -0.40 0.35 -0.75 0.70 -0.75 0.80 0 0.10 0.35 0.20 0.75 0.20 0.40 0 0.75 -0.35 0.75 -0.80z m-96 -0.90 c0 -0.45 -2 -0.65 -2.30 -0.25 -0.15 0.25 0.30 0.45 1 0.45 0.70 0 1.30 -0.10 1.30 -0.20z m3.50 -3.85 l0 -2 -1.85 0.15 c-1.80 0.15 -1.90 0.25 -2.05 2.05 l-0.15 1.85 2 0 2.05 0 0 -2.05z m50 0.05 l0 -2 -2 0 -2 0 0 2 0 2 2 0 2 0 0 -2z m-95.20 -0.35 c0.05 -1.05 -0.05 -1.50 -0.15 -1 -0.15 0.45 -0.55 0.85 -0.95 0.85 -1 0 -0.85 1.40 0.20 1.65 0.45 0.15 0.85 0.25 0.90 0.30 0 0 0 -0.80 0 -1.80z m26.90 -0.35 c-0.40 -1.05 -2.65 -2.40 -3.50 -2.10 -0.40 0.15 -0.70 0.05 -0.70 -0.20 0 -0.30 -0.20 -0.50 -0.50 -0.50 -1.20 0 -0.30 0.90 2.15 2.10 1.40 0.70 2.65 1.30 2.70 1.30 0.05 0.05 0 -0.20 -0.15 -0.60z m-91.95 -38.85 c0.50 -0.75 -0.05 -1.10 -1.20 -0.70 -0.60 0.15 -0.95 0.55 -0.80 0.80 0.40 0.60 1.60 0.55 2 -0.10z m10.25 -5.50 c0 -0.25 -0.35 -0.45 -0.75 -0.45 -0.75 0 -1 0.60 -0.45 1.15 0.40 0.40 1.20 -0.05 1.20 -0.70z"/>
  <path d="M76.25 303.70 c-2.55 -0.95 -3.95 -2.30 -5.50 -5.40 -1.50 -2.95 -1.65 -6.90 -0.45 -10.45 1.65 -4.80 7.40 -8 12.85 -7.10 4.70 0.80 7.35 2.65 8.85 6.10 3.10 7.10 0.25 15 -6.15 16.90 -3.15 0.95 -6.95 0.90 -9.60 -0.05z"/>
  <path d="M65.90 96.10 c-1.35 -0.15 -1.40 -0.25 -1.40 -3.55 l0 -3.40 4 -0.30 c4.10 -0.25 28.25 0.05 29.40 0.40 0.40 0.15 0.60 1.25 0.60 3.20 0 1.85 -0.25 3.15 -0.60 3.40 -0.65 0.40 -29.40 0.65 -32 0.25z"/>
  <path d="M122.60 95.40 c-0.85 -0.85 -0.75 -4.15 0.10 -4.85 0.40 -0.35 1.70 -0.55 2.90 -0.45 l2.15 0.15 0 2.75 0 2.75 -2.25 0.15 c-1.30 0.10 -2.50 -0.10 -2.90 -0.50z"/>
  <path d="M350 233.30 c0 -0.40 -0.30 -0.85 -0.60 -0.95 -0.35 -0.15 -0.15 -0.30 0.50 -0.30 0.80 -0.05 1.10 0.25 1.10 0.95 0 0.55 -0.20 1 -0.50 1 -0.25 0 -0.50 -0.30 -0.50 -0.70z"/>
  <path d="M269.15 195.55 c-0.90 -0.50 -2 -1.20 -2.45 -1.60 -3.70 -3.05 -3.65 -13.60 0.10 -15.65 0.50 -0.30 1.05 -0.65 1.20 -0.80 1 -1 3.20 -1.70 6.10 -1.90 2.80 -0.20 3.45 -0.10 3.70 0.60 0.20 0.50 0.90 0.80 2 0.80 1.35 0 1.70 0.20 1.70 1 0 0.65 0.35 1 0.90 1 2.15 0 3.75 6.30 2.65 10.40 -0.40 1.30 -1.40 3 -2.75 4.40 -2.05 2.15 -2.35 2.25 -4.85 2.25 -1.50 0 -3.60 0.05 -4.70 0.15 -1.30 0.15 -2.55 -0.10 -3.60 -0.65z m7.85 -1.05 c0 -0.65 -3 -0.65 -4 0 -0.55 0.35 -0.10 0.50 1.65 0.50 1.30 0 2.35 -0.20 2.35 -0.50z m-0.10 -7.10 c0.95 -0.95 0.70 -1.40 -0.65 -1.40 -1 0 -1.25 -0.25 -1.25 -1.30 0 -1.20 0.15 -1.30 1.60 -1.10 l1.60 0.25 -1.65 -1.40 c-0.90 -0.75 -1.50 -1.60 -1.35 -1.90 0.25 -0.35 -0.20 -0.55 -1.15 -0.55 -1.35 0 -1.55 0.20 -1.55 1.30 0 0.70 -0.20 1.65 -0.45 2.15 -0.60 1.05 0.70 3.90 1.85 4.20 1.55 0.40 2.40 0.35 3 -0.25z m4.60 -7.15 c0 -0.35 -3.70 -2.75 -4.30 -2.75 -0.30 0 -0.70 0.45 -0.85 1.05 -0.20 0.75 -0.10 0.85 0.30 0.50 0.85 -0.70 1.50 -0.55 2.25 0.50 0.55 0.80 2.60 1.35 2.60 0.70z"/>
  <path d="M220 195.75 c0 -0.40 0.35 -0.75 0.75 -0.75 0.40 0 0.75 -0.35 0.75 -0.75 0 -0.45 -0.45 -0.75 -1.15 -0.75 -1.05 0 -3.30 -1.75 -2.95 -2.30 0.05 -0.10 0.10 -0.25 0.05 -0.30 -0.30 -1 -0.55 -3.90 -0.75 -9.65 -0.35 -11.40 -1.05 -12.55 -1.25 -2 l-0.15 9 -0.35 -7 c-0.15 -3.85 -0.50 -8.75 -0.70 -10.95 l-0.40 -3.90 6.20 0.20 c7.45 0.25 9.40 0.95 12.05 4.20 2.30 2.85 3 5.25 3.05 10.45 0.05 5.70 -0.50 8.80 -1.65 9.10 -0.55 0.15 -1 0.80 -1.10 1.60 -0.10 1.10 -0.45 1.35 -1.85 1.45 -1.75 0.20 -4 1.35 -4.70 2.45 -0.60 1 -5.85 0.90 -5.85 -0.10z m7.30 -1.75 c0.75 0 3.20 -2.30 3.20 -3 0 -0.25 -0.65 -0.50 -1.45 -0.50 -1.05 0 -1.60 0.30 -1.80 1.05 -0.20 0.55 -0.90 1.25 -1.55 1.55 -1.50 0.70 -1.60 1.60 -0.05 1.20 0.60 -0.15 1.35 -0.30 1.65 -0.30z m4.70 -4.90 c-0.30 -0.10 -0.85 -0.05 -1.30 0.10 -0.60 0.25 -0.65 0.40 -0.10 1 0.55 0.65 0.75 0.65 1.30 -0.10 0.40 -0.55 0.45 -0.90 0.10 -1z m-6.90 -1.75 l0.15 -1.60 0.90 1.90 c1.05 2.20 1.50 2.30 2.25 0.60 0.50 -1.05 0.45 -1.35 -0.40 -1.85 -0.55 -0.35 -1 -1.05 -1 -1.50 0 -1.05 -1.35 -1.15 -2.55 -0.25 -0.95 0.75 -1.60 3.10 -1.20 4.40 0.45 1.45 1.65 0.30 1.85 -1.70z m-0.10 -3.85 c0 -0.25 0.45 -0.50 1 -0.50 0.55 0 1 -0.35 1 -0.75 0 -0.40 0.35 -0.75 0.80 -0.75 0.50 0 0.70 -0.35 0.60 -1.10 -0.20 -1.25 -1.40 -1.85 -1.40 -0.70 0 0.45 -0.20 0.80 -0.50 0.80 -0.25 0 -0.50 -0.75 -0.50 -1.60 0 -1.30 -0.30 -1.80 -1.35 -2.25 -0.75 -0.35 -1.40 -0.55 -1.55 -0.45 -0.10 0.15 -0.05 1.95 0.15 4 0.25 2.75 0.55 3.80 1.05 3.80 0.40 0 0.70 -0.20 0.70 -0.50z m-3.30 -9.20 c-0.75 -2.45 -2 -2.35 -1.45 0.15 0.20 1.05 0.55 1.40 1.05 1.20 0.50 -0.15 0.60 -0.65 0.40 -1.35z"/>
  <path d="M337.60 195.65 c-0.95 -0.45 -1.80 -1.10 -1.95 -1.50 -0.15 -0.35 -0.55 -0.65 -0.90 -0.65 -0.35 0 -1.10 -0.90 -1.70 -2 -1.15 -2.20 -1.45 -7.85 -0.60 -10.10 0.50 -1.30 3.30 -4.40 4 -4.40 0.25 0 0.55 -0.25 0.65 -0.60 0.10 -0.30 1.80 -0.65 4.20 -0.80 3.45 -0.20 4.25 -0.05 6.15 0.95 1.20 0.65 2.45 1.65 2.75 2.15 0.30 0.55 0.95 1.35 1.40 1.85 1.15 1.20 1.15 7.70 0.05 10.35 -0.90 2.20 -2.55 4.10 -3.50 4.10 -0.40 0 -1.05 0.35 -1.45 0.75 -1.05 1.05 -6.90 1 -9.10 -0.10z m0.90 -2.20 c0 -0.25 -0.25 -0.35 -0.55 -0.20 -0.30 0.20 -0.65 -0.10 -0.80 -0.70 -0.15 -0.60 -0.45 -1.05 -0.70 -1.05 -0.70 0 -0.55 0.55 0.40 1.60 0.90 1 1.65 1.20 1.65 0.35z m12.30 -9.25 c-0.20 -0.90 -0.55 -1.80 -0.80 -1.95 -1.05 -0.65 -1.40 0.30 -0.85 2.35 0.90 3.70 2.35 3.35 1.65 -0.40z m-12.80 -0.20 c0 -0.75 -0.35 -1 -1.25 -1 -0.70 0 -1.35 0 -1.50 0 -0.15 0 -0.20 0.15 -0.10 0.40 0.05 0.20 0.25 0.30 0.50 0.25 0.20 -0.10 0.35 0.10 0.35 0.40 0 0.25 0.25 0.35 0.50 0.20 0.30 -0.15 0.50 -0.05 0.50 0.20 0 0.30 0.25 0.55 0.50 0.55 0.30 0 0.50 -0.45 0.50 -1z m4.40 -6.30 c0.55 -0.60 0.50 -0.70 -0.35 -0.70 -0.55 0 -1.15 0.25 -1.30 0.50 -0.20 0.30 -0.50 0.40 -0.75 0.25 -0.20 -0.15 -0.95 -0.05 -1.60 0.20 -0.95 0.40 -0.80 0.45 1.05 0.45 1.25 0 2.55 -0.35 2.95 -0.70z"/>
 </g>
 <g fill="#fef5f5">
  <path d="M102.30 263.20 c-0.45 -1.10 0.55 -2.20 2 -2.20 0.95 0 1.20 -0.25 1.20 -1.25 0 -0.70 0.20 -1.25 0.45 -1.25 0.25 0 0.55 -0.45 0.70 -1 0.20 -0.75 0.70 -1 1.80 -1 1.55 0 1.55 0 0.75 1.25 -0.45 0.70 -1 1.25 -1.20 1.25 -0.25 0 -1.25 1.15 -2.25 2.50 -1.90 2.60 -2.90 3.10 -3.45 1.70z"/>
  <path d="M107.25 260.95 c-0.35 -0.50 0.50 -1.40 1.40 -1.45 0.60 0 0.40 0.85 -0.35 1.45 -0.55 0.45 -0.80 0.45 -1.05 0z"/>
  <path d="M137.50 250.05 c0 -0.85 0.30 -1.05 1.70 -1.05 0.95 0 1.80 -0.20 1.90 -0.50 0.10 -0.25 1.55 -0.65 3.30 -0.80 2.65 -0.30 3.10 -0.20 3.10 0.45 0 0.55 -0.65 0.90 -1.85 1.15 -1.70 0.25 -2.90 0.55 -7 1.55 -0.90 0.20 -1.15 0.05 -1.15 -0.80z"/>
  <path d="M144 250.50 c0 -0.25 0.45 -0.50 1 -0.50 0.55 0 1 0.25 1 0.50 0 0.30 -0.45 0.50 -1 0.50 -0.55 0 -1 -0.20 -1 -0.50z"/>
  <path d="M241.65 234.75 c-0.65 -0.70 -0.90 -5.60 -0.35 -7.50 0.15 -0.55 1.15 -1.60 2.20 -2.35 3.60 -2.60 10.20 -1.50 11.50 1.90 0.30 0.70 0.65 2.50 0.80 4 0.30 2.50 0.25 2.70 -0.75 2.70 -0.90 0 -1 -0.20 -0.75 -1.70 0.20 -1.55 0.15 -1.70 -0.80 -1.45 -0.55 0.15 -1 0.65 -1 1.15 0 1.45 -1.10 1.95 -4.95 2.30 -2.85 0.30 -3.75 0.20 -4.05 -0.35 -0.70 -1.05 -1.15 -0.15 -0.50 1 0.65 1.25 -0.35 1.45 -1.35 0.30z"/>
  <path d="M297.50 161.75 c0 -0.40 0.35 -0.75 0.75 -0.75 0.40 0 0.75 -0.20 0.75 -0.50 0 -0.25 0.35 -0.50 0.75 -0.50 0.40 0 0.75 0.25 0.75 0.50 0 0.30 0.35 0.50 0.75 0.50 0.40 0 0.75 0.35 0.75 0.75 0 0.55 -0.60 0.75 -2.25 0.75 -1.65 0 -2.25 -0.20 -2.25 -0.75z"/>
  <path d="M365 161.95 c0 -0.30 0.35 -0.85 0.75 -1.25 0.40 -0.45 0.75 -0.55 0.75 -0.25 0 0.30 0.35 0.55 0.75 0.55 0.40 0 0.75 0.35 0.75 0.75 0 0.50 -0.50 0.75 -1.50 0.75 -0.80 0 -1.50 -0.25 -1.50 -0.55z"/>
 </g>
 <g fill="#efaa21">
  <path d="M103.65 262.65 c-0.35 -0.15 -0.65 -1 -0.65 -1.95 0 -1.70 0 -1.70 2.30 -1.70 l2.25 0 -1 1.40 c-1.30 1.90 -2.15 2.50 -2.90 2.25z"/>
  <path d="M114.80 252.10 c-0.15 -0.15 -0.30 -1 -0.30 -1.95 0 -1.15 0.25 -1.65 0.75 -1.65 0.40 0 0.75 -0.20 0.75 -0.50 0 -0.25 1 -0.50 2.25 -0.50 1.50 0 2.25 0.20 2.25 0.65 -0.05 0.70 -5.30 4.40 -5.70 3.95z"/>
  <path d="M122.50 245.25 c0 -1.70 0.05 -1.75 2 -1.75 1.65 0 2 -0.15 2 -1 0 -0.85 0.35 -1 2.25 -1 3 0 2.95 1.05 -0.10 2.50 -1.35 0.60 -3 1.55 -3.75 2.05 -1.90 1.35 -2.40 1.20 -2.40 -0.80z"/>
  <path d="M133 239.80 c0 -1.85 0.75 -2.30 4.15 -2.30 2.75 0 2.35 1.15 -0.90 2.70 -1.55 0.70 -2.90 1.30 -3 1.30 -0.15 0 -0.25 -0.75 -0.25 -1.70z"/>
  <path d="M269.55 213.35 c-2.85 -1 -2.55 -1.85 0.65 -1.85 2.65 0 2.80 0.05 2.80 1.25 0 1.40 -0.75 1.55 -3.45 0.60z"/>
  <path d="M277 212.80 c0 -1.30 1.05 -1.80 4.15 -1.80 2.45 0 2.50 1.30 0.10 2.30 -2.70 1.10 -4.25 0.95 -4.25 -0.50z"/>
  <path d="M207.50 200 c0 -1.65 0.15 -2 1 -2 0.55 0 1 0.35 1 0.75 0 0.40 0.25 0.75 0.50 0.75 0.30 0 0.50 0.55 0.50 1.25 0 1.05 -0.25 1.25 -1.50 1.25 -1.40 0 -1.50 -0.10 -1.50 -2z"/>
  <path d="M224 200.75 c0 -1.15 0.20 -1.25 2.25 -1.25 1.85 0 2.25 0.15 2.25 0.95 0 0.95 -1.25 1.55 -3.35 1.55 -0.90 0 -1.15 -0.30 -1.15 -1.25z"/>
  <path d="M268.15 201.15 c-2.10 -0.70 -6.65 -4.60 -6.65 -5.65 0 -1.10 3.25 -0.50 4.80 0.95 0.85 0.80 2.25 1.60 3.10 1.80 0.90 0.15 1.60 0.55 1.60 0.80 0 0.25 0.35 0.45 0.75 0.45 0.45 0 0.75 0.45 0.75 1.25 0 1.50 -1.10 1.60 -4.35 0.40z"/>
  <path d="M273.50 200.75 c0 -1.15 0.20 -1.25 2.25 -1.25 1.65 0 2.25 -0.20 2.25 -0.75 0 -0.55 0.55 -0.75 2 -0.75 1.90 0 2 -0.10 2 -1.50 0 -1.40 0.15 -1.50 1.75 -1.50 1.65 0 1.75 0.10 1.75 1.70 0 1.45 -0.15 1.70 -1.20 1.70 -0.65 0 -1.70 0.45 -2.30 1 -1.35 1.25 -5.05 2.60 -7.10 2.60 -1.15 0 -1.40 -0.20 -1.40 -1.25z"/>
  <path d="M297.25 186.60 l0 -15.35 3.65 -0.15 c3.65 -0.15 3.70 -0.15 3.30 1 -0.20 0.65 -0.30 1.70 -0.20 2.40 0.30 1.85 0.30 26.40 0 26.65 -0.15 0.10 -1.70 0.35 -3.50 0.50 l-3.30 0.30 0.05 -15.35z"/>
  <path d="M338 201.55 c-2.75 -0.85 -5.40 -2.60 -7.65 -5 -1.30 -1.35 -2.35 -2.75 -2.35 -3.05 0 -0.25 0.70 -0.50 1.50 -0.50 1 0 1.50 0.25 1.50 0.75 0 0.50 0.50 0.75 1.60 0.75 1.25 0 1.45 -0.15 1 -0.60 -0.75 -0.75 -0.80 -3.90 0 -3.90 0.30 0 1.30 0.85 2.20 1.95 1.15 1.30 2.35 2.10 3.95 2.55 1.40 0.40 2.25 0.90 2.25 1.40 0 0.60 -0.50 0.65 -3 0.40 -2.80 -0.35 -3 -0.30 -3 0.70 0 0.65 0.35 1 0.95 1 0.55 0 1.15 0.25 1.30 0.50 0.15 0.30 0.85 0.50 1.55 0.50 1 0 1.20 0.25 1.20 1.50 0 1.60 -0.55 1.80 -3 1.05z"/>
  <path d="M343 200.80 c0 -1.30 1.05 -1.80 3.90 -1.80 1.45 0 1.60 -0.15 1.60 -1.50 0 -1.45 -0.10 -1.50 -2.25 -1.50 -2.75 0 -2.85 -0.65 -0.35 -1.95 2.30 -1.15 3.35 -2.30 4.35 -4.70 1.95 -4.75 0 -9.35 -4.90 -11.65 -2.50 -1.10 -2.75 -1.15 -5.10 -0.45 -4 1.25 -6.75 4.65 -6.75 8.45 0 1.65 -0.10 1.80 -1.50 1.80 -1.45 0 -1.50 -0.10 -1.50 -2.25 0 -1.60 0.20 -2.25 0.70 -2.25 0.75 0 1.30 -1.50 1.30 -3.60 0 -1.30 0.15 -1.40 2.20 -1.40 2.15 0 2.25 -0.05 2.40 -1.60 0.15 -1.50 0.30 -1.65 2.05 -1.80 1.20 -0.10 1.85 -0.40 1.85 -0.90 0 -0.40 0.25 -0.70 0.50 -0.70 0.30 0 0.50 -0.20 0.50 -0.50 0 -0.75 -2.30 -0.60 -4.35 0.25 -1.85 0.80 -4.65 1 -4.65 0.40 0.10 -1.45 5.30 -3.15 9.60 -3.15 2.65 0 7.35 1.75 8.10 2.95 0.50 0.80 1.30 0.20 1.30 -1 0 -0.85 0.35 -0.95 3.50 -0.95 l3.50 0 0 15.50 0 15.50 -1.50 0 c-1 0 -1.50 -0.25 -1.50 -0.75 0 -0.40 -0.45 -0.75 -1 -0.75 -0.55 0 -1 0.35 -1 0.75 0 0.40 -0.45 0.75 -1 0.75 -0.80 0 -1 -0.35 -1 -1.50 0 -1.65 -0.55 -1.90 -1.55 -0.70 -0.60 0.70 -0.70 0.70 -1 -0.15 -0.35 -0.80 -0.40 -0.80 -0.40 0.15 -0.05 0.75 -0.55 1.20 -2 1.60 -3.05 0.95 -4.05 0.80 -4.05 -0.60z m12.50 -11.05 c0.80 -1 0.20 -4.25 -0.75 -4.25 -0.40 0 -0.75 -0.45 -0.75 -1 0 -0.55 -0.20 -1 -0.50 -1 -0.25 0 -0.50 0.85 -0.50 1.95 0 1.05 -0.15 2.65 -0.30 3.50 -0.30 1.40 -0.20 1.55 0.95 1.55 0.65 0 1.50 -0.35 1.85 -0.75z"/>
  <path d="M365 181.55 c0 -20.20 0 -20.55 1 -20.55 0.70 0 1 0.35 1 1.15 0 0.95 0.40 1.25 2.10 1.65 1.75 0.40 2.15 0.70 2.70 2.20 0.35 0.95 0.65 3.40 0.65 5.40 0.05 3.25 -0.05 3.60 -0.90 3.60 -0.75 0 -1.05 0.40 -1.15 1.65 -0.15 1.40 -0.35 1.60 -1.85 1.75 l-1.70 0.15 0.25 8.95 c0.15 6.05 0.45 9.20 0.85 9.70 0.35 0.40 0.55 1.60 0.45 2.65 -0.15 1.75 -0.30 1.90 -1.75 2.05 l-1.65 0.15 0 -20.50z"/>
  <path d="M369 200.75 c0 -0.80 0.30 -1.25 0.75 -1.25 0.40 0 0.75 -0.20 0.75 -0.50 0 -0.25 -0.20 -0.50 -0.50 -0.50 -0.25 0 -0.50 -1.25 -0.50 -2.75 0 -1.50 0.25 -2.75 0.50 -2.75 0.30 0 0.50 -0.35 0.50 -0.75 0 -0.40 0.45 -0.75 1 -0.75 0.90 0 1 0.35 1 4.15 0 5.55 -0.25 6.35 -2.05 6.35 -1.20 0 -1.45 -0.20 -1.45 -1.25z"/>
  <path d="M252.50 199.50 c0 -0.55 -0.20 -1 -0.50 -1 -0.30 0 -0.50 -4.60 -0.50 -12.75 l0 -12.75 -1.25 0 c-1 0 -1.25 0.25 -1.25 1.25 0 0.90 -0.25 1.25 -1 1.25 -0.85 0 -1 -0.35 -1 -2.25 l0 -2.30 3.65 0.15 3.60 0.15 0.15 14.65 c0.15 14.45 0.15 14.60 -0.85 14.60 -0.70 0 -1.05 -0.35 -1.05 -1z"/>
  <path d="M207.50 178.80 l0 -17.80 9.15 0 c5 0 9.60 0.15 10.25 0.30 1.35 0.40 1.45 1.70 0.10 1.70 -0.80 0 -1 0.35 -1 1.70 0 1.50 0.20 1.75 1.50 2.05 1.25 0.30 1.50 0.55 1.50 1.85 0 1.25 -0.15 1.45 -0.85 1.15 -2.65 -1.10 -5.30 -1.60 -8.75 -1.70 l-3.85 -0.10 -0.15 13.15 c-0.15 10.90 -0.05 13.25 0.55 13.75 0.40 0.35 0.65 0.75 0.50 0.85 -0.10 0.15 -2.20 0.40 -4.60 0.60 l-4.35 0.35 0 -17.85z"/>
  <path d="M258.50 182.95 c0 -1.45 1.25 -4.45 1.85 -4.45 0.70 0 0.85 1.90 0.35 3.90 -0.30 1.10 -2.20 1.60 -2.20 0.55z"/>
  <path d="M312.50 179.30 c0 -0.95 -0.20 -1.90 -0.50 -2.05 -0.25 -0.15 -0.50 -0.85 -0.50 -1.55 0 -1 0.25 -1.20 1.50 -1.20 1.15 0 1.50 -0.20 1.50 -1 0 -0.80 0.35 -1 1.90 -1.05 1 -0.05 1.45 -0.15 1 -0.30 -0.70 -0.15 -0.90 -0.75 -0.90 -2.45 0 -2.10 0.05 -2.20 1.45 -2.20 1.30 0 1.50 0.20 1.65 1.65 0.15 1.55 0.25 1.60 2.55 1.75 2 0.15 2.35 0.30 2.35 1.20 0 0.95 -0.20 1 -3 0.65 l-3 -0.35 0 3.30 0 3.30 -1.55 0 c-1.10 0 -1.60 0.25 -1.80 1 -0.15 0.65 -0.70 1 -1.45 1 -1.05 0 -1.20 -0.25 -1.20 -1.70z"/>
  <path d="M281.65 175.25 c-0.35 -0.40 -0.65 -1.30 -0.65 -2 l0 -1.30 1.45 1 c1.90 1.35 2.15 1.30 1.95 -0.30 -0.10 -1.15 0.05 -1.45 1 -1.55 1.10 -0.15 1.15 -0.05 1 2.25 l-0.15 2.40 -2 0.10 c-1.25 0.10 -2.25 -0.15 -2.60 -0.60z"/>
  <path d="M307.50 172.75 c0 -1.40 0.20 -1.75 1 -1.75 0.80 0 1 0.35 1 1.75 0 1.40 -0.20 1.75 -1 1.75 -0.80 0 -1 -0.35 -1 -1.75z"/>
  <path d="M311.65 171.15 c0.55 -0.15 0.85 -0.70 0.85 -1.70 0 -1.10 0.25 -1.45 1 -1.45 0.80 0 1 0.35 1 1.75 0 1.70 -0.05 1.75 -1.85 1.70 -1.05 -0.05 -1.50 -0.15 -1 -0.30z"/>
  <path d="M297.35 167.65 c-0.20 -0.15 -0.35 -1.75 -0.35 -3.50 l0 -3.15 3.50 0 c1.95 0 3.50 0.15 3.55 0.40 0 0.20 0.10 0.80 0.25 1.35 0.10 0.55 0.10 1.95 -0.05 3.15 l-0.30 2.10 -3.15 0 c-1.70 0 -3.30 -0.15 -3.45 -0.35z"/>
  <path d="M247.20 164.40 c0.05 -2.95 0.15 -3.15 1.25 -3.30 1.10 -0.15 1.15 -0.05 0.85 1.40 -0.15 0.90 -0.30 2.40 -0.30 3.30 0 1.30 -0.20 1.70 -0.90 1.70 -0.80 0 -0.90 -0.45 -0.90 -3.10z"/>
  <path d="M252.50 164 c0 -0.55 -0.35 -1 -0.75 -1 -0.40 0 -0.75 -0.45 -0.75 -1 0 -0.80 0.35 -1 1.50 -1 0.85 0 1.55 0.30 1.55 0.65 0.05 0.30 0.15 1.20 0.25 2 0.10 1.05 -0.05 1.35 -0.85 1.35 -0.60 0 -0.95 -0.35 -0.95 -1z"/>
 </g>
 <g fill="#f5a61d">
  <path d="M102.25 262.90 c-0.15 -0.65 -0.20 -22.30 -0.10 -48.15 0.15 -52.60 -0.05 -49.70 3.80 -57.35 4.75 -9.40 13.10 -17.85 25.80 -26.15 6.55 -4.25 22.55 -12.65 23.10 -12.10 0.45 0.45 0.35 111.65 -0.10 112.35 -0.30 0.50 -8.75 4.65 -10.80 5.25 -0.65 0.20 -2.10 0.80 -3.15 1.35 -1.05 0.55 -2.65 1.05 -3.50 1.15 -0.85 0.05 -1.80 0.15 -2.15 0.20 -0.35 0 -0.50 0.35 -0.35 0.70 0.30 0.85 -3.95 3.10 -5.60 2.95 -0.75 -0.05 -1.20 0.20 -1.20 0.60 0 0.80 -1.75 1.55 -3.10 1.35 -0.60 -0.05 -0.80 0.15 -0.60 0.60 0.30 0.90 -4.45 3.70 -5.90 3.45 -0.60 -0.10 -0.80 0.05 -0.60 0.60 0.20 0.55 0 0.65 -0.75 0.45 -0.80 -0.20 -1 -0.10 -0.80 0.45 0.20 0.50 -0.65 1.45 -2.40 2.85 -1.50 1.15 -3.85 3.25 -5.20 4.70 -1.60 1.70 -2.80 2.55 -3.45 2.45 -0.75 -0.15 -0.80 -0.05 -0.20 0.35 0.60 0.40 0.55 0.70 -0.50 1.75 -1.45 1.60 -1.90 1.60 -2.25 0.20z"/>
  <path d="M271.50 213.45 c0 -0.25 -0.25 -0.35 -0.50 -0.20 -1.55 0.95 -6.35 -2.15 -9.10 -5.95 -2.15 -2.95 -1.95 -3.30 2 -3.30 3 0 3.55 0.15 4.55 1.20 2.65 2.80 6.65 3.55 10.30 1.85 2.55 -1.20 4.05 -2.80 5 -5.50 1.20 -3.40 1.05 -3.80 -0.85 -2.65 -0.90 0.50 -2.05 0.85 -2.50 0.75 -0.60 -0.15 -0.80 0 -0.65 0.45 0.20 0.50 -0.30 0.90 -1.50 1.25 -0.95 0.30 -1.75 0.35 -1.75 0.10 0 -0.25 -0.35 -0.45 -0.75 -0.45 -0.40 0 -0.75 0.25 -0.75 0.50 0 0.30 -0.90 0.50 -2 0.50 -1.10 0 -2 -0.20 -2 -0.50 0 -0.25 -0.35 -0.35 -0.75 -0.20 -0.45 0.20 -0.75 0 -0.75 -0.45 0 -0.90 -1.85 -1.45 -2.20 -0.65 -0.15 0.35 -0.25 0.35 -0.25 -0.10 -0.05 -0.35 -0.25 -0.50 -0.55 -0.35 -0.25 0.15 -0.50 0.05 -0.50 -0.25 0 -0.60 -2.65 -2.95 -2.80 -2.50 -0.20 0.55 -2.40 -1.90 -3.35 -3.75 -1.40 -2.70 -1.75 -9.05 -0.70 -12.60 2.90 -9.75 16.15 -14 23.35 -7.50 1.75 1.60 3 1.25 2.05 -0.55 -0.70 -1.30 0.05 -1.60 4 -1.60 l3 0 -0.15 15.65 -0.15 15.60 -1.30 2.75 c-1.15 2.40 -5.65 7.40 -6.80 7.55 -0.20 0.05 -1.30 0.10 -2.35 0.20 -1.10 0.05 -2.10 0.35 -2.20 0.65 -0.25 0.75 -7.10 0.80 -7.10 0.05z m7.90 -19.80 c0.75 -0.55 2 -1.95 2.80 -3.05 4.15 -5.90 -0.70 -13.60 -8.50 -13.60 -2.10 0 -6.10 2.75 -7.30 5 -1.15 2.25 -1.15 5.55 0.05 7.90 1.05 2.05 2.05 3.05 4.30 4.30 2.05 1.15 6.80 0.85 8.65 -0.55z"/>
  <path d="M208.50 201.10 c-0.50 -0.55 -0.80 -2.20 -0.95 -4.75 -0.20 -4.70 0.35 -8.95 1 -7.80 0.25 0.50 0.20 1.40 -0.15 2.35 -0.70 1.80 0.20 4.10 1.60 4.10 1.15 0 3.20 -1.80 2.50 -2.25 -0.65 -0.40 -0.65 -4.25 0 -4.25 0.30 0 0.50 0.55 0.50 1.25 0 0.70 0.25 1.25 0.50 1.25 0.30 0 0.50 0.35 0.50 0.75 0 0.40 0.25 0.75 0.50 0.75 0.85 0 0.55 0.90 -0.35 1.15 -1.80 0.40 1.90 1.35 5.35 1.35 5.40 0 8.35 -0.90 10.80 -3.25 2.50 -2.35 3.25 -4.75 3.25 -9.90 0 -4 -0.50 -6.10 -2 -8.50 -1.25 -2.05 -4.25 -4.70 -5 -4.45 -0.30 0.10 -0.55 -0.05 -0.55 -0.30 0 -0.30 -0.45 -0.40 -1 -0.25 -0.55 0.15 -1 0.05 -1 -0.15 0 -0.25 -1.60 -0.35 -3.55 -0.30 -1.95 0.10 -4.15 0.05 -4.85 -0.15 l-1.35 -0.35 1.30 -0.70 c0.75 -0.35 2.20 -0.65 3.25 -0.65 5.35 0.15 5.55 0.05 5.50 -1.55 -0.05 -1.30 -0.25 -1.50 -1.45 -1.50 -1.10 0 -1.40 -0.20 -1.25 -0.85 0.15 -0.75 0.65 -0.85 3.40 -0.70 6.50 0.35 11.35 3.50 14.30 9.35 2.80 5.55 3.25 11.40 1.35 18.15 -1.80 6.70 -9.45 13.40 -13.90 12.25 -0.75 -0.20 -1.25 -0.10 -1.25 0.25 0 0.40 -2.50 0.55 -8.10 0.55 -7 -0.05 -8.25 -0.15 -8.90 -0.90z"/>
  <path d="M247.35 201.65 c-0.15 -0.25 -0.25 -7 -0.25 -15.05 l0 -14.65 1.30 -0.50 c0.75 -0.30 2.30 -0.40 3.50 -0.20 1.80 0.25 2.10 0.50 2.10 1.55 0 0.65 -0.20 1.20 -0.50 1.20 -0.90 0 -0.55 2.90 0.40 3.15 0.80 0.20 0.80 0.25 0 0.30 -1.10 0.05 -1.25 2.05 -0.15 2.05 0.40 0 0.75 0.25 0.75 0.50 0 0.30 -0.35 0.50 -0.75 0.50 -1.05 0 -0.95 1.50 0.15 1.55 0.70 0 0.70 0.10 -0.15 0.45 l-1 0.45 1 0.05 1 0.05 -1 0.45 c-0.85 0.35 -0.85 0.45 -0.10 0.45 1.05 0.05 1.15 1.70 0.05 2.75 -0.70 0.75 -0.70 0.85 0 1.60 1 1 1 1.70 0.05 1.70 -0.40 0 -0.75 0.35 -0.75 0.75 0 0.40 0.35 0.75 0.75 0.75 1.05 0 0.95 1.50 -0.10 1.55 -0.55 0 -0.65 0.15 -0.25 0.30 0.70 0.30 0.80 2.15 0.10 2.15 -0.25 0 -0.50 0.35 -0.50 0.75 0 0.40 0.30 0.75 0.65 0.75 0.40 0 0.65 0.85 0.75 2.50 l0.10 2.50 -3.45 0 c-1.95 0 -3.60 -0.15 -3.70 -0.35z"/>
  <path d="M297.45 200.90 c-0.25 -4.85 -0.15 -12.40 0.20 -12.40 0.20 0 0.35 2 0.35 4.40 0 2.85 0.20 4.65 0.65 5.05 0.50 0.55 0.50 0.70 0 0.90 -1.40 0.50 -0.55 1.15 1.50 1.15 l2.10 0 -0.10 -6.75 c0 -3.75 0.15 -7.40 0.35 -8.15 0.35 -1.15 0.40 -1.20 0.45 -0.25 0.05 0.60 0.35 1.20 0.70 1.30 0.50 0.20 0.50 0.30 0 0.30 -1.05 0.10 -0.80 3.45 0.25 3.70 0.80 0.20 0.80 0.25 0 0.30 -1.05 0.05 -1.30 2.80 -0.25 3.20 0.45 0.20 0.40 0.40 -0.15 0.80 -0.55 0.40 -0.60 0.65 -0.20 0.95 0.60 0.35 0.90 2.60 0.75 5.25 -0.05 1.35 -0.10 1.35 -3.30 1.35 -3 0 -3.25 -0.10 -3.30 -1.10z"/>
  <path d="M312.50 201.65 c0 -0.25 -0.10 -5.80 -0.15 -12.40 l-0.10 -12 -2.40 -0.15 -2.35 -0.15 0.05 -3 0.10 -2.95 2.40 0 c1.60 0 2.45 -0.20 2.50 -0.60 0 -0.35 0 -2.60 -0.05 -5 l-0.05 -4.40 3.50 0 3.55 0 0 4 c0 3.20 -0.15 4 -0.75 4 -0.40 0 -0.75 0.35 -0.75 0.75 0 0.70 1.70 1.20 4.90 1.40 l1.65 0.10 -0.15 2.75 -0.15 2.75 -2.35 0.15 -2.40 0.15 0 12.50 0 12.45 -3.50 0 c-1.90 0 -3.50 -0.15 -3.50 -0.35z m1 -25.05 c-0.35 -0.65 -0.45 -0.40 -0.45 1.15 0 1.75 0.05 1.85 0.50 0.85 0.30 -0.75 0.25 -1.50 -0.05 -2z"/>
  <path d="M339.50 201.25 c0 -0.90 -0.80 -1 -1.15 -0.10 -0.15 0.40 -0.55 0.20 -1.10 -0.55 -0.55 -0.75 -1.20 -1.10 -1.80 -0.95 -0.70 0.20 -0.95 0 -1 -0.70 -0.05 -0.50 -0.15 -1.15 -0.20 -1.45 -0.05 -0.25 -0.15 -0.70 -0.20 -1 0 -0.25 -0.55 -0.50 -1.10 -0.50 -0.90 0 -0.95 0.10 -0.45 0.75 0.55 0.65 0.45 0.75 -0.40 0.60 -1.15 -0.15 -2.60 -1.25 -2.60 -1.90 0 -0.25 -0.45 -0.90 -0.95 -1.40 -2.40 -2.40 -2.65 -11.90 -0.35 -15.70 2.75 -4.70 7.25 -7.60 12.40 -8.05 2.20 -0.20 2.85 -0.05 3.35 0.65 0.45 0.55 1.10 0.80 2.05 0.65 0.75 -0.10 1.55 0.05 1.70 0.35 0.20 0.30 0.10 0.55 -0.15 0.55 -0.30 0 -0.55 0.35 -0.55 0.75 0 0.50 -0.50 0.75 -1.60 0.75 -0.90 0 -2 0.25 -2.40 0.50 -0.55 0.35 -0.10 0.50 1.65 0.50 1.30 0 2.35 0.20 2.35 0.45 0 0.25 0.50 0.65 1.05 0.80 0.65 0.20 0.85 0.50 0.55 0.70 -1.10 0.65 1.15 2.60 3.35 2.90 1.55 0.20 2.25 0.55 2.40 1.20 0.40 1.40 1.65 1.15 1.65 -0.30 0 -0.70 0.25 -1.25 0.55 -1.25 0.40 0 0.40 -0.20 0.05 -0.60 -0.30 -0.35 -0.40 -1.25 -0.25 -2 0.60 -3.25 0.95 -0.90 1.05 6.85 0.05 5.95 -0.10 8.20 -0.50 8.10 -0.35 -0.05 -0.75 0.60 -0.90 1.40 l-0.30 1.50 -0.35 -1.35 c-0.30 -1.20 -0.65 -1.40 -2.05 -1.40 -0.95 0 -2.15 -0.15 -2.65 -0.35 -0.60 -0.20 -0.45 0.10 0.50 0.90 1.70 1.55 1.75 2.45 0.10 2.45 -1 0 -1.25 0.25 -1.25 1.25 0 0.70 0.25 1.25 0.50 1.25 0.80 0 0.60 1.80 -0.30 2.55 -0.45 0.35 -1.85 0.70 -3.10 0.75 -1.25 0 -2.40 0.30 -2.50 0.65 -0.10 0.30 -1.25 0.55 -2.65 0.55 -1.85 0 -2.45 -0.20 -2.45 -0.75z m7.75 -7 c0.85 -0.10 1.80 -0.20 2.20 -0.20 0.45 -0.05 0.55 -0.45 0.35 -1.20 -0.15 -0.65 0.20 -2.35 0.75 -3.80 0.95 -2.55 1.20 -7.75 0.35 -7.25 -0.20 0.15 -1.25 -0.60 -2.35 -1.65 -3.30 -3.20 -3.70 -3.40 -5.70 -3.25 -1.05 0.10 -2.25 -0.10 -2.60 -0.40 -0.75 -0.60 -1.75 -0.30 -1.75 0.55 0 0.90 -2.20 2.40 -3.50 2.45 -0.90 0 -1.05 0.15 -0.55 0.45 0.55 0.35 0.55 0.80 -0.25 2.50 -0.55 1.10 -1.25 2.05 -1.55 2.05 -0.90 0 -0.80 1.50 0.10 1.50 0.40 0 0.75 0.45 0.75 1 0 0.60 0.35 1.70 0.75 2.50 0.40 0.80 0.70 1.75 0.65 2.10 -0.10 0.30 0.45 0.90 1.25 1.25 0.75 0.40 1.35 0.90 1.35 1.15 0 0.90 3.70 1 9.75 0.25z"/>
  <path d="M352.50 200 c0 -1.90 0.05 -1.95 1.30 -1.50 0.70 0.30 1.80 0.50 2.50 0.50 1 0 1.20 0.25 1.20 1.50 0 1.45 -0.05 1.50 -2.50 1.50 l-2.50 0 0 -2z"/>
  <path d="M366.15 200.75 c0 -0.65 0.15 -1.10 0.40 -0.95 0.60 0.35 0.55 0.05 -0.25 -1.55 -0.60 -1.10 -0.75 -4 -0.80 -13.35 0 -10.35 0.05 -11.90 0.75 -11.90 0.45 0 0.75 0.50 0.80 1.15 0.05 0.80 0.10 0.90 0.30 0.25 0.10 -0.50 0.55 -0.90 0.95 -0.90 0.40 0 0.70 -0.35 0.70 -0.75 0 -0.40 0.35 -0.75 0.75 -0.75 0.40 0 0.75 -0.25 0.75 -0.55 0 -0.25 -0.20 -0.35 -0.50 -0.20 -0.25 0.15 -0.35 0 -0.20 -0.45 0.15 -0.40 0.75 -0.85 1.35 -0.95 1.05 -0.20 1.05 -0.20 -0.10 -0.30 -0.80 -0.05 -1.05 -0.25 -0.85 -0.80 0.45 -1.20 -0.60 -3.40 -1.45 -3.05 -0.40 0.15 -0.75 0.05 -0.75 -0.20 0 -0.30 -0.55 -0.50 -1.25 -0.50 -1.10 0 -1.25 -0.20 -1.25 -2 l0 -2 3.15 0 3.20 0 0.30 5.15 c0.15 2.80 0.30 10.20 0.30 16.45 0.05 10.25 -0.05 11.40 -0.85 11.90 -0.80 0.55 -0.80 0.55 0.05 0.30 0.45 -0.15 0.85 -0.05 0.85 0.20 0 0.30 -0.35 0.50 -0.75 0.50 -0.40 0 -0.75 0.35 -0.75 0.75 0 0.40 0.35 0.75 0.80 0.75 0.55 0 0.70 0.25 0.50 0.80 -0.15 0.45 -0.30 1.35 -0.30 2 0 0.75 -0.30 1.20 -0.75 1.20 -0.40 0 -0.75 0.25 -0.75 0.50 0 0.30 -1 0.50 -2.20 0.50 -2 0 -2.15 -0.10 -2.15 -1.25z"/>
  <path d="M354.75 198.05 l-1.50 -0.35 1.35 -0.25 c0.90 -0.20 1.45 -0.05 1.60 0.35 0.15 0.40 0.20 0.65 0.15 0.65 -0.05 -0.05 -0.75 -0.20 -1.60 -0.40z"/>
  <path d="M297.25 177.50 c0.10 -2.35 0.20 -4.60 0.25 -5 0 -0.40 0.40 -0.10 0.85 0.70 0.60 1.15 0.65 1.80 0.20 3.25 -0.30 1 -0.75 2.60 -1 3.55 -0.35 1.35 -0.45 0.80 -0.30 -2.50z"/>
  <path d="M302.35 178.75 c-0.25 -1.35 -0.45 -3.50 -0.55 -4.75 -0.10 -2.05 0 -2.30 1 -2.40 1 -0.05 1.15 0.15 1.30 2.90 0.10 2.10 -0.05 3 -0.45 3 -0.30 0 -0.65 0.85 -0.75 1.90 -0.15 1.85 -0.15 1.85 -0.55 -0.65z"/>
  <path d="M207.65 176.50 c0 -1.25 0.10 -1.80 0.25 -1.25 l0.25 1 0.40 -1 c0.35 -0.85 0.40 -0.80 0.40 0.40 0.05 0.75 -0.15 1.35 -0.40 1.35 -0.25 0 -0.55 0.40 -0.65 0.90 -0.15 0.45 -0.25 -0.15 -0.25 -1.40z"/>
  <path d="M356.20 174.45 c-0.15 -0.30 0 -0.75 0.35 -1 0.40 -0.25 0.75 -0.20 0.85 0.05 0.10 0.30 0.50 0.50 0.90 0.50 0.40 0 0.70 0.25 0.70 0.50 0 0.70 -2.35 0.65 -2.80 -0.05z"/>
  <path d="M353.75 171.50 c-0.20 -0.30 0.25 -0.50 1 -0.50 0.75 0 1.20 0.20 1 0.50 -0.15 0.30 -0.60 0.50 -1 0.50 -0.40 0 -0.85 -0.20 -1 -0.50z"/>
  <path d="M247.45 167.80 c-0.10 -0.15 -0.10 -1.65 0.05 -3.40 0.25 -3.05 0.30 -3.15 1.70 -3.30 0.80 -0.10 2.20 -0.05 3.05 0.10 1.40 0.30 1.70 0.60 1.90 1.95 0.10 0.85 0.10 2.35 -0.05 3.25 l-0.25 1.60 -3.10 0 c-1.70 0 -3.20 -0.10 -3.30 -0.20z"/>
  <path d="M300 167.50 c0 -0.25 0.35 -0.50 0.75 -0.50 0.40 0 0.75 0.25 0.75 0.50 0 0.30 -0.35 0.50 -0.75 0.50 -0.40 0 -0.75 -0.20 -0.75 -0.50z"/>
 </g>
 <g fill="#132558">
  <path d="M42.50 312.10 c-9.45 -0.70 -17.05 -7.05 -18.90 -15.85 -0.35 -1.70 -0.50 -33.75 -0.45 -102.25 l0.10 -99.75 1.60 -3.35 c2.70 -5.70 7.65 -9.60 14.20 -11.15 4.75 -1.10 40.45 -1.10 40.45 0 0 0.60 0.90 0.75 5.20 0.75 2.90 0 5.35 -0.20 5.55 -0.45 0.40 -0.70 5.80 -1.30 6.20 -0.70 0.20 0.35 4.55 0.40 12.50 0.15 13.15 -0.40 14.65 -0.25 20.10 2.20 2.65 1.20 5.75 4 7.80 7.05 2.35 3.50 2.65 5.70 2.65 18.35 l0 11.95 -1.35 1.20 c-1 0.85 -2 1.20 -3.50 1.25 -1.85 0 -2.15 0.15 -2.45 1.25 -0.30 1.30 -1.95 2.75 -3.05 2.75 -0.50 0 -0.65 -2.15 -0.65 -9.70 l0 -9.70 -5.60 -0.30 c-3.10 -0.15 -24.30 -0.15 -47.15 0.05 l-41.50 0.40 0 83.60 c0 45.95 0.20 83.75 0.40 84 0.25 0.20 21.40 0.40 47 0.40 l46.60 0 0.15 -5.25 c0.10 -3.20 0.35 -5.35 0.70 -5.55 0.30 -0.20 2.50 -0.40 4.90 -0.40 l4.30 -0.05 0.65 3.65 c0.45 2.55 0.60 7.70 0.45 17.35 -0.15 13.65 -0.15 13.75 -1.45 16.55 -1.70 3.60 -4.35 6.55 -7.65 8.40 -5.40 3.10 -4.30 3 -47.05 3.15 -21.45 0.10 -39.80 0.10 -40.75 0z m41.80 -9.85 c4.10 -1.20 7.35 -5.55 7.30 -9.75 -0.05 -2.25 -1.65 -5.90 -3.15 -7.35 -2.65 -2.40 -7.40 -3.40 -10.55 -2.20 -3.60 1.35 -6.90 6.20 -6.90 10.05 0 1.65 2.15 6 3.65 7.40 1.25 1.15 4.45 2.50 6.15 2.55 0.55 0.05 2.15 -0.30 3.50 -0.70z m12.30 -208.15 c0.25 -0.25 0.40 -1.10 0.30 -1.90 -0.10 -1 -0.50 -1.50 -1.40 -1.75 -1.60 -0.45 -25.85 -0.55 -27.95 -0.15 -1.40 0.30 -1.55 0.50 -1.55 2.25 0 1.70 0.15 1.90 1.40 2.05 3.35 0.40 28.70 0 29.20 -0.50z m29.80 -1 c0.20 -1.40 -1.20 -2 -2.25 -0.95 -0.70 0.65 -0.70 0.95 -0.15 1.60 0.90 1.10 2.20 0.75 2.40 -0.65z"/>
  <path d="M176.75 260.65 c-2.75 -0.40 -5.95 -0.80 -7.10 -0.95 -1.20 -0.20 -2.15 -0.45 -2.15 -0.65 0 -0.15 -1 -0.25 -2.25 -0.15 -1.75 0.15 -2.25 0.05 -2.25 -0.55 0 -1.05 -2.60 -1.85 -6 -1.85 -3 0 -3.50 -0.35 -3.50 -2.50 0 -1.10 1.90 -1.35 15 -1.80 5.10 -0.15 9.40 -0.40 9.65 -0.55 0.20 -0.10 0.35 -21.30 0.35 -47.10 0 -44.85 0.05 -46.95 0.90 -47.75 0.50 -0.45 3.05 -2.25 5.65 -4.05 3.80 -2.65 4.75 -3.10 5.10 -2.50 0.20 0.45 0.35 24.45 0.25 53.40 -0.20 57.60 -0.05 54.05 -3.10 56.75 -1.50 1.30 -2.95 1.30 -10.55 0.25z"/>
  <path d="M363.50 253.25 c0 -0.80 -0.30 -1.25 -0.80 -1.25 -0.55 0 -0.65 -0.30 -0.45 -1 0.15 -0.50 0.05 -1.40 -0.20 -1.95 -0.45 -0.80 -1.05 -0.95 -4.15 -0.95 -3.45 0.05 -5.20 0.50 -6 1.65 -0.20 0.30 -0.40 0.10 -0.40 -0.35 0 -0.50 0.35 -0.90 0.75 -0.90 0.40 0 0.75 -0.20 0.75 -0.50 0 -0.75 -1.80 -0.60 -2.50 0.25 -0.30 0.40 -0.45 0.95 -0.25 1.25 0.55 0.90 -0.25 0.55 -2.25 -1.05 -1.05 -0.85 -2.15 -1.40 -2.45 -1.20 -0.30 0.15 -0.55 1.30 -0.55 2.55 0 1.20 -0.20 2.20 -0.50 2.20 -0.25 0 -0.45 -0.15 -0.45 -0.35 0.05 -0.25 0.05 -1.15 0 -2.05 -0.05 -1.60 -0.10 -1.65 -1.90 -1.50 -1.75 0.15 -1.95 0.30 -2.20 1.90 -0.20 1 -0.35 1.30 -0.40 0.65 -0.10 -2 -0.60 -2.65 -2.10 -2.65 -1.10 0 -1.50 0.30 -1.75 1.25 -0.15 0.70 -0.20 1.60 0 2 0.15 0.40 0 0.75 -0.35 0.75 -0.35 0 -0.60 -0.80 -0.60 -2.10 0 -2.70 -0.90 -3.05 -1.30 -0.55 -0.20 1.35 -0.35 1.55 -0.40 0.60 -0.05 -1.50 -2.40 -2.95 -3.10 -1.90 -0.20 0.35 -0.75 0.45 -1.20 0.25 -0.60 -0.20 -1.15 0.05 -1.65 0.75 l-0.75 1.10 -0.45 -1.10 c-0.20 -0.60 -0.60 -1 -0.85 -0.80 -0.30 0.15 -0.40 0.60 -0.20 1 0.15 0.40 0.05 0.75 -0.25 0.75 -0.25 0 -0.60 -0.45 -0.75 -1 -0.15 -0.70 -0.70 -1 -1.55 -1 -0.70 0 -1.30 -0.20 -1.30 -0.50 0 -1.15 -0.95 -0.40 -1.15 0.90 -0.10 0.75 -0.25 0.10 -0.30 -1.45 l-0.05 -2.85 25.15 0 c13.80 -0.05 25.70 0.10 26.50 0.20 1.15 0.25 1.35 0.50 1.35 2.05 0 0.95 -0.30 2.05 -0.70 2.45 -0.95 0.90 -1.30 0.90 -1.30 -0.05 0 -0.55 -0.55 -0.75 -1.75 -0.75 -1.55 0 -1.90 0.25 -2.50 1.65 -0.60 1.40 -0.70 1.50 -1.05 0.65 -0.25 -0.60 -0.15 -1.05 0.20 -1.20 0.35 -0.10 0.60 -0.40 0.60 -0.70 0 -0.25 -0.40 -0.35 -0.95 -0.15 -0.60 0.20 -1.05 0 -1.25 -0.55 -0.55 -1.45 -1.20 -0.10 -0.95 1.95 0.20 1.45 0.50 1.85 1.35 1.90 0.55 0.05 1.40 0.15 1.80 0.20 0.40 0.05 1.55 0.15 2.60 0.20 1.50 0.05 1.75 0.20 1.55 1 -0.25 0.95 -2.25 1.55 -5.25 1.55 -1.15 0 -1.40 -0.20 -1.40 -1.25z"/>
  <path d="M295.40 251.65 c-1.10 -0.30 -1.10 -0.65 -0.15 -1.95 1 -1.35 0.90 -1.85 -0.25 -1.20 -0.70 0.35 -1 0.35 -1 0 0 -0.85 -2.40 -0.55 -2.90 0.35 -0.45 0.80 -0.55 0.80 -1.35 0 -0.45 -0.45 -1.35 -0.85 -2.05 -0.85 -1 0 -1.20 -0.25 -1.20 -1.45 0 -2.35 1.90 -2.70 12.65 -2.30 5 0.20 9.50 0.60 10 0.85 0.60 0.30 1.10 0.20 1.70 -0.35 0.60 -0.60 1.40 -0.75 3.25 -0.60 1.35 0.15 2.60 0.40 2.75 0.55 0.20 0.20 0.40 1.60 0.45 3.20 0 1.55 -0.05 2 -0.15 1 -0.10 -1.05 -0.40 -1.90 -0.70 -1.90 -0.25 0 -0.45 0.25 -0.45 0.50 0 0.30 -0.55 0.50 -1.25 0.50 -0.65 0 -1.40 0.40 -1.70 0.85 -0.45 0.85 -0.50 0.85 -1.40 0.05 -1.10 -1 -6 -1 -5.75 0 0.15 0.80 -0.30 0.75 -1.20 -0.15 -0.45 -0.40 -1.30 -0.75 -1.95 -0.75 -0.60 0 -1.25 0.35 -1.45 0.75 -0.15 0.40 -0.50 0.75 -0.80 0.75 -0.30 0 -0.40 -0.20 -0.25 -0.50 0.20 -0.30 -0.50 -0.50 -1.65 -0.50 -1.90 0 -2.55 0.65 -2.60 2.65 0 0.70 3.40 0.35 3.65 -0.40 0.20 -0.55 0.20 -0.50 0.15 0.10 -0.05 0.65 -0.55 0.90 -1.80 1 -0.95 0 -2.15 -0.05 -2.60 -0.20z"/>
  <path d="M291.75 250.50 c-0.20 -0.35 -0.15 -0.80 0.15 -1.10 0.70 -0.70 2.25 -0.10 2 0.75 -0.30 0.80 -1.70 1.05 -2.15 0.35z"/>
  <path d="M314 250.05 c0 -0.75 0.30 -1.05 1.05 -1.05 0.70 0 0.95 0.25 0.85 0.85 -0.25 1.30 -1.90 1.45 -1.90 0.20z"/>
  <path d="M336.50 250.50 c0 -0.25 0.45 -0.50 1 -0.50 0.55 0 1 0.25 1 0.50 0 0.30 -0.45 0.50 -1 0.50 -0.55 0 -1 -0.20 -1 -0.50z"/>
  <path d="M341.35 250.65 c-0.70 -0.65 -0.30 -1.65 0.65 -1.65 0.65 0 1 0.35 1 1 0 0.95 -1 1.35 -1.65 0.65z"/>
  <path d="M346.20 250 c0.05 -0.40 0.50 -0.80 1.05 -0.85 0.75 -0.05 0.75 0 0.15 0.15 -0.45 0.15 -0.95 0.55 -1.05 0.85 -0.10 0.35 -0.15 0.25 -0.15 -0.15z"/>
  <path d="M367.25 250.55 c-0.45 -0.80 0.15 -1.55 1.30 -1.55 0.70 0 0.95 0.30 0.85 0.85 -0.20 1 -1.65 1.45 -2.15 0.70z"/>
  <path d="M138.25 249.65 c-1.55 -0.40 -2.25 -1.15 -2.25 -2.45 0 -1.50 1.75 -2.40 15 -7.95 l9.75 -4.10 0.25 -46.35 c0.15 -32.05 0.40 -46.45 0.80 -46.70 0.30 -0.20 2.45 -1.75 4.80 -3.45 2.35 -1.75 4.65 -3.15 5.10 -3.15 0.75 0 0.80 4.10 0.65 51.65 -0.10 28.35 -0.30 53.30 -0.40 55.35 l-0.20 3.75 -3.50 0.10 c-6.15 0.20 -14.30 1.15 -20.75 2.40 -6.25 1.25 -7.35 1.35 -9.25 0.90z"/>
  <path d="M330.65 240.40 c-0.80 -0.35 -1.15 -1 -1.15 -1.90 0 -1.30 0.05 -1.35 2.45 -1.10 2.95 0.25 4.25 -0.40 5.50 -2.80 2.25 -4.45 1.55 -11.15 -1.50 -14.20 -1.35 -1.40 -1.65 -1.45 -3.95 -1.15 -2.10 0.30 -2.50 0.20 -2.50 -0.45 0 -1.25 1.95 -1.95 4.65 -1.65 2.10 0.20 2.80 0.50 4.15 2 6.05 6.60 2.95 21.95 -4.45 21.80 -1.15 0 -2.60 -0.25 -3.20 -0.55z"/>
  <path d="M347.15 238.80 c-1.75 -1.60 -1.90 -1.90 -1.90 -4.55 0 -2.40 -0.10 -2.75 -0.85 -2.55 -0.70 0.15 -0.90 -0.10 -0.90 -1.15 0 -1 1 -2.35 4.25 -5.55 3.25 -3.20 4.10 -4.35 3.65 -4.85 -1.35 -1.60 -4.40 0.10 -4.40 2.45 0 1.10 -1.90 1.25 -2.30 0.15 -0.15 -0.40 -0.05 -1.50 0.30 -2.50 1.10 -3.30 5.20 -4.30 8 -1.90 1.35 1.15 1.75 1.25 2.60 0.70 0.50 -0.30 1.50 -0.80 2.20 -1.05 1.10 -0.45 1.20 -0.35 1.20 0.80 0 0.85 -0.35 1.40 -1 1.55 -0.55 0.15 -1 0.45 -1 0.70 0 0.25 -0.35 0.45 -0.75 0.45 -0.40 0 -0.75 0.45 -0.75 0.95 0 0.65 -0.55 1.15 -1.75 1.55 -2.25 0.75 -6.90 5.45 -6.25 6.25 0.30 0.35 0.45 1.75 0.40 3.15 -0.10 2.10 0.10 2.80 1.10 3.85 0.65 0.70 1.50 1.25 1.85 1.25 1.15 0 0.50 1.75 -0.70 1.90 -0.70 0.10 -1.80 -0.45 -3 -1.60z"/>
 </g>
 <g fill="#14284f">
  <path d="M41.50 311.95 c-1.50 -0.20 -3.40 -0.60 -4.25 -0.85 l-1.50 -0.45 1.40 -0.40 c0.75 -0.20 2.40 -0.10 3.70 0.20 1.25 0.35 2.95 0.45 3.70 0.30 1.25 -0.30 1.45 -0.15 1.45 0.70 0 1.15 -0.10 1.15 -4.50 0.50z"/>
  <path d="M118 311.50 c0 -0.70 0.55 -0.90 2.90 -1.10 1.55 -0.15 3 -0.05 3.15 0.20 0.15 0.25 0.45 0.15 0.60 -0.25 0.15 -0.35 1.55 -1.30 3.20 -2.10 1.60 -0.80 3.75 -2.25 4.75 -3.35 1.05 -1.05 2.25 -1.90 2.75 -1.90 0.70 0 0.75 -0.10 0.25 -0.45 -0.55 -0.35 -0.55 -0.50 0 -1.10 1.55 -1.65 2.05 -5.65 2.20 -18.80 0.05 -7.25 -0.05 -13.15 -0.25 -13.15 -0.20 0 -0.40 -0.70 -0.40 -1.55 0 -2.05 -1 -2.75 -4.55 -3.20 -2.10 -0.30 -2.60 -0.50 -1.85 -0.75 0.95 -0.35 0.90 -0.40 -0.25 -0.60 -1.05 -0.25 -1 -0.25 0.40 -0.35 1 0 1.55 0.15 1.35 0.45 -0.15 0.30 0.20 0.50 0.85 0.50 0.90 0 1 -0.10 0.40 -0.50 -0.50 -0.30 0.35 -0.45 2.65 -0.35 l3.45 0.10 -0.10 16.25 c0 9.80 -0.25 17.05 -0.55 18.25 -2.15 8 -9.05 13.30 -18.80 14.40 -1.80 0.20 -2.15 0.10 -2.15 -0.65z"/>
  <path d="M31.15 308.15 c-0.50 -0.50 -0.70 -0.75 -0.45 -0.55 0.20 0.15 0.75 0.20 1.10 0.05 0.40 -0.15 0.70 0.05 0.70 0.55 0 1 -0.15 1 -1.35 -0.05z"/>
  <path d="M24.60 299.65 c-0.30 -0.75 -0.80 -2.30 -1.05 -3.40 -0.65 -2.40 -0.70 -198.95 -0.05 -200.50 0.20 -0.55 0.50 5.55 0.70 14.25 0.30 14.35 0.40 137.40 0.20 171.25 -0.10 10.60 0.05 16.15 0.45 17.50 0.70 2.30 0.50 2.90 -0.25 0.90z"/>
  <path d="M89.05 285.90 c-0.65 -0.80 -1.75 -1.75 -2.40 -2.05 -1.20 -0.55 -1.60 -1.85 -0.55 -1.85 0.70 0 3.90 2.40 3.80 2.90 -0.05 0.20 0.10 0.75 0.35 1.25 0.60 1.45 0.10 1.35 -1.20 -0.25z"/>
  <path d="M72.05 286.50 c-0.80 -0.45 -0.30 -1.50 0.75 -1.50 0.75 0 1 1.25 0.30 1.70 -0.20 0.10 -0.70 0.05 -1.05 -0.20z"/>
  <path d="M75.80 283.15 c-0.40 -1.05 -0.45 -1 0.95 -1.25 0.65 -0.15 1.30 0 1.45 0.30 0.10 0.30 0.25 0.15 0.25 -0.35 0.05 -0.50 0.30 -0.85 0.65 -0.75 0.85 0.30 1.10 1.40 0.30 1.40 -0.35 0 -1.25 0.30 -2 0.70 -1.15 0.60 -1.35 0.60 -1.60 -0.05z"/>
  <path d="M82.75 282.50 c-0.80 -0.20 -1.10 -0.40 -0.60 -0.45 0.45 0 0.85 -0.25 0.85 -0.50 0 -0.25 0.45 -0.35 1 -0.20 0.55 0.15 1 0.60 1 0.95 0 0.75 -0.05 0.75 -2.25 0.20z"/>
  <path d="M98.40 274.65 c0.85 -0.10 2.35 -0.10 3.25 0 0.85 0.10 0.15 0.20 -1.65 0.20 -1.80 0 -2.50 -0.10 -1.60 -0.20z"/>
  <path d="M107.05 274.80 c0.40 -0.40 11.35 -0.55 11.75 -0.15 0.20 0.20 -2.40 0.35 -5.80 0.35 -3.40 0 -6.05 -0.10 -5.95 -0.20z"/>
  <path d="M121.10 274.70 c0.50 -0.50 4.90 -0.60 4.90 -0.15 0 0.25 -1.15 0.45 -2.60 0.45 -1.40 0 -2.45 -0.15 -2.30 -0.30z"/>
  <path d="M128.50 268.85 l0.25 -5.60 0.15 5.20 c0.05 2.85 -0.05 5.40 -0.25 5.60 -0.20 0.25 -0.30 -2.10 -0.15 -5.20z"/>
  <path d="M181.50 261.95 c-7.85 -1.65 -18.60 -2.95 -24.75 -2.95 -3.35 0 -4.35 -0.15 -4.55 -0.75 -0.40 -0.95 -1.75 -0.95 -3 0 -0.70 0.55 -2.45 0.70 -6.80 0.75 -3.20 0 -8.55 0.35 -11.85 0.80 -3.35 0.40 -6.35 0.65 -6.70 0.55 -1.05 -0.40 5.10 -2.85 10.85 -4.35 5.60 -1.45 14.85 -3 17.75 -3 1.20 0 1.55 0.20 1.55 1 0 0.55 -0.35 1 -0.75 1 -0.40 0 -0.75 0.45 -0.75 1 0 1 1.25 1.40 1.60 0.50 0.10 -0.25 2.30 -0.55 4.90 -0.60 3.65 -0.10 4.80 -0.30 5.05 -0.90 0.50 -1.25 -0.10 -2 -1.55 -2 -1.55 0 -2.40 0.75 -1.40 1.15 0.35 0.15 0 0.30 -0.75 0.30 -0.80 0.05 -1.30 -0.15 -1.10 -0.45 0.15 -0.25 -0.05 -0.50 -0.50 -0.50 -0.45 0 -0.65 -0.20 -0.50 -0.50 0.15 -0.30 2.50 -0.50 5.30 -0.50 2.95 0 4.95 0.20 4.95 0.50 0 0.30 -0.65 0.50 -1.45 0.50 -1.20 0 -1.40 0.20 -1.30 1.20 0.20 1.80 0.65 2.30 2.05 2.30 0.65 0 1.20 0.25 1.20 0.50 0 0.30 0.80 0.50 1.80 0.50 0.95 0 2.15 0.20 2.60 0.45 0.45 0.25 2.55 0.55 4.60 0.70 2.05 0.15 4.50 0.45 5.40 0.60 1.05 0.25 1.60 0.20 1.60 -0.20 0 -0.30 0.55 -0.55 1.25 -0.55 0.70 0 1.25 0.25 1.25 0.50 0 0.30 0.25 0.50 0.50 0.50 0.30 0 0.50 -0.35 0.50 -0.75 0 -0.40 0.45 -0.75 1 -0.75 0.80 0 1 0.35 1 1.70 0 2.30 -0.45 3.30 -1.45 3.25 -0.45 -0.05 -3.85 -0.70 -7.55 -1.50z"/>
  <path d="M114.60 259.40 c0.65 -1.95 25.55 -16.35 30.40 -17.60 0.70 -0.20 0.20 0.25 -1.10 0.95 -1.30 0.65 -2.45 1.45 -2.65 1.75 -0.15 0.25 -0.85 0.50 -1.50 0.50 -1.45 0 -2.55 1.65 -1.60 2.40 0.30 0.25 1.35 0.65 2.25 0.85 0.85 0.15 1.60 0.60 1.60 0.95 0 0.35 -2.30 1.35 -5.10 2.25 -2.85 0.90 -8.90 3.20 -13.45 5.10 -4.55 1.90 -8.45 3.45 -8.65 3.45 -0.20 0 -0.30 -0.30 -0.20 -0.60z"/>
  <path d="M282.70 254.35 c-0.15 -0.40 -0.15 -2.80 -0.10 -5.40 l0.15 -4.70 7.90 -0.10 c4.40 -0.05 8.45 0.10 9 0.35 0.75 0.30 -0.30 0.45 -3.35 0.45 -4.60 0.05 -8.30 1.10 -8.30 2.35 0 0.35 -0.50 0.70 -1.10 0.80 -1 0.15 -1.15 0.45 -1.10 2.05 0.05 1.05 0.15 2 0.30 2.10 0.40 0.40 3.55 -0.70 4 -1.35 0.30 -0.50 0.55 -0.45 0.95 0.25 0.85 1.40 2.80 1.05 3.70 -0.65 0.95 -1.80 1.70 -1.95 1.35 -0.25 -0.20 1.15 -0.05 1.25 1.50 1.25 1.40 0 1.75 -0.25 2.25 -1.50 0.55 -1.50 0.55 -1.50 -1.20 -1.50 -1.55 0 -1.65 -0.10 -0.95 -0.75 0.90 -0.90 1.80 -0.95 1.85 -0.10 0 0.30 0.20 0.15 0.45 -0.40 0.35 -0.85 0.45 -0.85 0.45 -0.10 0.05 0.45 0.30 0.85 0.55 0.85 0.30 0 0.40 0.55 0.20 1.25 -0.20 0.75 -0.05 1.60 0.30 2 0.70 0.85 2.80 1 3.25 0.25 0.20 -0.30 -0.35 -0.50 -1.20 -0.50 -0.85 0 -1.55 -0.20 -1.55 -0.50 0 -0.25 0.70 -0.50 1.50 -0.50 1 0 1.50 -0.25 1.50 -0.75 0 -0.40 -0.20 -0.75 -0.50 -0.75 -0.25 0 -0.50 -0.35 -0.50 -0.75 0 -0.90 1.45 -1 1.55 -0.10 0.05 0.30 0.10 1.30 0.15 2.10 0.05 1.45 1 2.35 1.10 1.10 0.05 -0.30 0.10 -0.90 0.15 -1.20 0.10 -1.20 1 -0.65 1.15 0.75 0.10 1.10 0.40 1.40 1.80 1.50 0.90 0.10 1.60 -0.05 1.60 -0.35 0 -0.30 -0.55 -0.55 -1.25 -0.55 -0.70 0 -1.25 -0.20 -1.25 -0.50 0 -0.25 0.65 -0.50 1.45 -0.50 1.40 0 1.45 -0.10 1.20 -1.75 -0.25 -1.55 -0.15 -1.75 0.80 -1.75 1.15 0 1.35 1 0.55 2.55 -0.85 1.55 0.20 2.95 2.25 2.95 l1.75 0 0 -3 c0 -4.15 0.65 -4.75 5.45 -4.90 2.20 -0.10 3.95 0.10 4.35 0.45 0.50 0.40 0.70 0.40 0.70 0 0 -0.35 0.85 -0.50 2.15 -0.50 l2.10 0.10 -2 0.35 c-1.10 0.20 -1.55 0.40 -0.95 0.45 1.75 0.10 3.70 1.25 3.70 2.20 0 0.45 0.25 0.85 0.50 0.85 0.30 0 0.50 0.90 0.50 2 0 1.95 -0.05 2 -1.75 2 -0.95 0 -1.75 -0.20 -1.75 -0.50 0 -0.25 -0.55 -0.50 -1.25 -0.50 -1.40 0 -1.45 -0.15 -0.70 -1.60 0.80 -1.45 0.10 -1.70 -1 -0.35 l-1 1.20 -0.05 -1.10 c0 -1.15 -0.50 -1.45 -1.15 -0.80 -0.20 0.15 0 0.85 0.45 1.55 0.40 0.65 0.65 1.50 0.50 1.85 -0.40 1.10 0.55 1.40 1.15 0.40 0.50 -0.85 0.50 -0.85 0.55 0 0 0.45 0.35 0.85 0.75 0.85 0.40 0 0.75 0.45 0.75 1 0 0.95 -0.35 1 -9.55 1 l-9.55 0 0.20 -1.25 c0.20 -0.95 0.05 -1.25 -0.65 -1.25 -0.55 0 -0.95 0.25 -0.95 0.50 0 0.30 -1 0.50 -2.25 0.50 -1.65 0 -2.25 0.20 -2.25 0.75 0 0.65 -1.10 0.75 -6.95 0.75 -6.20 0 -7 -0.10 -7.20 -0.85 -0.20 -0.85 -0.25 -0.85 -0.30 0 -0.05 0.70 -0.55 0.85 -3.30 0.85 -2.25 0 -3.35 -0.20 -3.55 -0.65z m41.40 -3.25 c0.40 -1.40 -0.45 -3.10 -1.55 -3.10 -0.55 0 -1.15 -0.20 -1.30 -0.50 -0.70 -1.15 -1.25 -0.35 -1.25 2 l0 2.50 1.95 0 c1.45 0 2 -0.25 2.15 -0.90z m-0.40 -4.85 c0.15 -0.40 0.20 -0.75 0.10 -0.75 -0.15 0 -0.65 -0.15 -1.15 -0.35 -0.75 -0.30 -0.80 -0.20 -0.30 0.45 0.35 0.40 0.50 0.90 0.30 1.05 -0.15 0.20 -0.10 0.35 0.20 0.35 0.30 0 0.65 -0.35 0.85 -0.75z m5 0 c0.15 -0.40 0.10 -0.75 -0.10 -0.80 -0.20 0 -1.15 -0.10 -2.15 -0.25 -1.50 -0.20 -1.85 -0.05 -2.10 0.80 -0.25 0.90 0 1 1.90 1 1.45 0 2.25 -0.25 2.45 -0.75z"/>
  <path d="M321.10 250.15 c0.25 -1.30 1.90 -1.45 1.90 -0.20 0 0.75 -0.30 1.05 -1.05 1.05 -0.70 0 -0.95 -0.25 -0.85 -0.85z"/>
  <path d="M367.50 254.05 c0 -0.60 0.35 -1.05 0.80 -1.05 0.40 0 0.60 -0.20 0.45 -0.50 -0.15 -0.30 0.20 -0.50 0.80 -0.50 1 0 1.05 -0.20 0.85 -2.50 -0.15 -1.35 -0.05 -2.50 0.15 -2.50 0.25 0 0.45 -0.45 0.45 -1 0 -0.55 -0.20 -0.95 -0.45 -0.85 -0.25 0.05 -0.45 -0.10 -0.50 -0.40 -0.05 -0.25 0.20 -0.50 0.45 -0.45 0.30 0.05 0.85 0.10 1.25 0.15 0.65 0.05 0.75 0.85 0.65 5.20 l-0.15 5.10 -2.35 0.15 c-2.15 0.15 -2.40 0.05 -2.40 -0.85z"/>
  <path d="M346.50 253.55 c0 -0.50 -0.45 -1.05 -1 -1.20 -0.75 -0.20 -1 -0.65 -0.95 -1.70 l0.10 -1.40 0.20 1.40 c0.25 1.70 1.35 1.55 1.40 -0.20 0 -1.60 1.70 -2 1.85 -0.35 0.10 2.10 0.15 2.35 0.50 2.70 0.20 0.15 0.65 -0.25 0.95 -1 0.55 -1.15 0.45 -1.45 -0.45 -2.45 -1.35 -1.45 -1.40 -1.85 -0.10 -1.85 0.55 0 1 0.30 1 0.65 0 0.35 0.30 1.25 0.65 2 0.45 1 0.90 1.30 1.85 1.20 0.95 -0.05 1.30 0.15 1.40 1.05 0.15 1 -0.05 1.10 -1.85 1.10 -1.15 0 -2.05 0.25 -2.05 0.50 0 0.30 -0.80 0.50 -1.75 0.50 -1.40 0 -1.75 -0.20 -1.75 -0.95z"/>
  <path d="M169 252.95 c0 -0.55 1.50 -0.95 3.55 -0.95 3 0 2.35 0.90 -0.80 1.10 -1.50 0.05 -2.75 0 -2.75 -0.15z"/>
  <path d="M338.25 253 c-0.15 -0.25 -0.85 -0.50 -1.55 -0.50 -0.65 0 -1.20 -0.15 -1.20 -0.40 0 -0.20 0.95 -0.30 2.05 -0.20 1.45 0.15 2 0.05 1.75 -0.35 -0.20 -0.30 -0.90 -0.55 -1.60 -0.55 -0.70 0 -1.10 -0.20 -0.95 -0.50 0.15 -0.25 0.85 -0.50 1.55 -0.50 1.05 0 1.20 -0.15 0.90 -1.25 -0.25 -0.90 -0.10 -1.25 0.45 -1.25 0.60 0 0.70 0.45 0.50 2.05 -0.25 1.75 -0.15 2.05 0.80 2.30 0.55 0.15 1.05 0.60 1.05 0.95 0 0.80 -3.25 1 -3.75 0.20z"/>
  <path d="M356.35 252.80 c-0.30 -0.75 0.60 -1.30 2.25 -1.30 0.75 0 0.90 -0.20 0.70 -0.85 -0.20 -0.45 -0.05 -1 0.30 -1.25 1.05 -0.65 1.40 -0.45 1.40 0.75 0 1.60 0.50 2 1.30 0.95 0.40 -0.50 0.65 -0.60 0.70 -0.20 0 0.30 0.35 0.60 0.75 0.60 1.20 0 0.90 1.35 -0.35 1.70 -2.25 0.60 -6.80 0.35 -7.05 -0.40z"/>
  <path d="M286.85 250.65 c-0.15 -0.25 -0.10 -0.75 0.15 -1.10 0.50 -0.85 2.15 -0.30 1.90 0.60 -0.30 0.75 -1.70 1.10 -2.05 0.50z"/>
  <path d="M291.80 250.55 c-0.55 -0.85 0.35 -1.65 1.35 -1.25 0.95 0.35 1.10 1 0.35 1.45 -0.25 0.15 -0.50 -0.10 -0.55 -0.60 0 -0.80 -0.05 -0.80 -0.40 0.05 -0.30 0.75 -0.50 0.80 -0.75 0.35z"/>
  <path d="M313.85 250.70 c-0.40 -0.40 0.15 -1.70 0.70 -1.70 0.25 0 0.45 0.45 0.45 1 0 0.95 -0.55 1.30 -1.15 0.70z"/>
  <path d="M341.45 250.90 c-0.40 -1.35 -0.25 -1.90 0.60 -1.90 0.60 0 0.95 0.35 0.95 1 0 0.55 -0.35 1 -0.75 1 -0.40 0 -0.75 -0.05 -0.80 -0.10z"/>
  <path d="M367.25 250.50 c-0.45 -0.75 0.20 -1.50 1.30 -1.50 1.15 0 1.30 1.25 0.15 1.70 -1.05 0.40 -1.10 0.40 -1.45 -0.20z"/>
  <path d="M351.50 249.55 c0 -0.85 1.90 -1.85 2.45 -1.25 0.15 0.15 -0.20 0.35 -0.80 0.50 -0.65 0.20 -1 0.55 -0.80 1 0.15 0.40 0 0.70 -0.30 0.70 -0.30 0 -0.55 -0.40 -0.55 -0.95z"/>
  <path d="M289.60 248.75 c-1.40 -1.45 -1.40 -1.75 0.15 -1.75 0.70 0 1.25 0.25 1.25 0.60 0 0.30 0.35 0.15 0.80 -0.40 0.40 -0.50 0.65 -0.65 0.45 -0.30 -0.15 0.30 -0.60 1.15 -0.95 1.80 l-0.60 1.20 -1.10 -1.15z"/>
  <path d="M142.50 248.70 c0 -0.85 1.10 -0.70 1.40 0.20 0.10 0.35 -0.15 0.60 -0.60 0.60 -0.45 0 -0.80 -0.35 -0.80 -0.80z"/>
  <path d="M145.50 248.45 c0 -0.30 0.45 -0.45 1 -0.30 0.55 0.15 1 0.10 1 -0.05 0 -0.65 2.50 -1.50 3.50 -1.25 0.55 0.15 1 0 1 -0.30 0 -0.30 0.70 -0.55 1.55 -0.55 0.80 0 1.40 -0.15 1.30 -0.35 -0.15 -0.25 2.30 -0.45 5.45 -0.55 5.30 -0.15 5.70 -0.10 5.70 0.80 0 0.85 -0.55 1 -5.90 1.25 -3.25 0.20 -7.70 0.65 -9.90 1.10 -4.75 0.90 -4.70 0.90 -4.70 0.20z"/>
  <path d="M178.65 246 c0 -1.80 0.10 -2.50 0.20 -1.60 0.10 0.85 0.10 2.35 0 3.25 -0.10 0.85 -0.20 0.15 -0.20 -1.65z"/>
  <path d="M293.60 248.20 c-0.85 -0.90 -0.75 -1.20 0.35 -1.20 1.10 0 1.80 1.30 0.90 1.65 -0.35 0.10 -0.90 -0.10 -1.25 -0.45z"/>
  <path d="M307.95 248.05 c0.35 -0.25 0.50 -0.70 0.35 -1 -0.20 -0.35 0.05 -0.55 0.65 -0.55 1 0 1 0.05 0.20 1 -0.50 0.55 -1.10 1 -1.40 1 -0.25 0 -0.20 -0.20 0.20 -0.45z"/>
  <path d="M168.50 245.80 c0 -0.35 0.45 -0.80 1 -0.95 0.90 -0.25 1 -0.65 0.90 -3.95 -0.05 -2 0.05 -6.25 0.25 -9.40 0.20 -3.15 0.35 -24.35 0.35 -47.10 0 -36.45 0.10 -41.40 0.75 -41.40 0.65 0 0.75 6.10 0.75 51.75 l0 51.75 -2 0 c-1.35 0 -2 -0.20 -2 -0.70z"/>
  <path d="M281.70 239.75 c-6.45 -3.30 -8.35 -12.70 -3.60 -18.45 4 -4.85 12.05 -5.70 16.30 -1.65 0.85 0.85 1.60 1.75 1.60 1.95 0 0.85 -2.75 0.40 -3.35 -0.55 -0.65 -1.05 -3.50 -2.05 -5.80 -2.05 -1.90 0 -4.95 1.65 -6.50 3.50 -4.85 5.75 -1 15 6.25 15 6.15 0 10.05 -4.80 7.70 -9.40 -0.45 -0.90 -0.90 -1.60 -0.95 -1.60 -0.05 0 -0.15 0.85 -0.15 1.90 0 2.50 -1.40 4.45 -3.70 5.15 -5.35 1.60 -9.50 -3.80 -6.45 -8.30 1.50 -2.20 3.30 -2.95 6.45 -2.65 3.05 0.30 6.05 2.20 7.15 4.55 1.05 2.15 1.10 6.40 0.15 8.25 -2.65 5.05 -9.70 7.05 -15.10 4.35z m7.70 -9.05 c1.60 -1.10 1.50 -3.90 -0.15 -5 -1.45 -0.95 -3 -0.55 -4.05 1.10 -1.90 2.90 1.35 5.90 4.20 3.90z"/>
  <path d="M350.10 240.65 c-0.75 -0.15 -1.10 -0.50 -1 -1.05 0.15 -0.70 0.70 -0.80 3.75 -0.70 5.05 0.25 7.80 -1 9.20 -4.20 1.35 -3.05 0.95 -6.05 -1.10 -8.45 -2.15 -2.40 -5.75 -3.40 -7.75 -2.10 -1.15 0.70 -1.15 -1.10 -0.05 -1.95 0.75 -0.55 0.90 -0.90 0.50 -1.05 -0.35 -0.15 -0.65 -0.60 -0.65 -1 0 -0.55 0.35 -0.70 1.25 -0.55 0.70 0.15 1.25 0.10 1.25 -0.05 0 -0.15 0.95 -0.75 2.10 -1.30 1.55 -0.75 3.10 -1 5.90 -1 3.40 0 4.10 0.15 6.30 1.50 4.70 2.95 6.80 8.85 5.20 14.75 -0.85 3.20 -4.10 6.20 -7.50 6.95 -3.90 0.85 -4.50 0.75 -4.50 -0.70 0 -1.10 0.20 -1.25 1.65 -1.25 4.30 0 8.20 -4.10 8.30 -8.75 0.10 -3.75 -2.30 -7.85 -5.50 -9.55 -2.45 -1.25 -10.10 -0.45 -10 1.05 0 0.25 0.70 0.65 1.55 0.80 0.90 0.20 2.40 1.10 3.35 2 5.55 5.30 3.55 13.90 -3.80 16.40 -1.65 0.55 -6.10 0.65 -8.45 0.20z"/>
  <path d="M330.10 239.90 c-0.95 -0.95 -0.80 -3.10 0.20 -2.70 0.45 0.15 1.05 0.30 1.35 0.35 0.35 0 0.05 0.25 -0.65 0.50 -0.90 0.40 -1.05 0.60 -0.55 0.90 0.35 0.25 0.60 0.70 0.50 1 -0.15 0.45 -0.40 0.40 -0.85 -0.05z"/>
  <path d="M217.50 239.30 c-5.35 -1.55 -7.55 -3.80 -7.85 -8 -0.35 -4.80 2.95 -8.25 7.90 -8.30 2.75 0 3.05 -0.20 2.40 -1.90 -0.60 -1.60 -1.30 -2.10 -3.05 -2.10 -1.65 0 -2.90 1.20 -2.90 2.80 0 0.95 -0.25 1.20 -1.20 1.20 -1.80 0 -2 -0.80 -0.85 -3.15 0.85 -1.70 0.95 -2.20 0.40 -2.60 -2.20 -1.65 -2.10 -5.05 0.20 -6.95 1.90 -1.60 7 -2.50 12.15 -2.15 4.75 0.35 6.55 0.90 8.45 2.75 1.55 1.50 1.85 4.20 0.55 5.65 -0.75 0.85 -0.75 1 0.25 2.25 0.60 0.75 1.05 2 1.05 2.75 0 1.20 -0.20 1.45 -1.25 1.45 -1 0 -1.25 -0.25 -1.25 -1.15 0 -1.50 -1.45 -2.85 -3.05 -2.85 -1.60 0 -2.30 0.50 -2.90 2.15 -0.65 1.60 -0.55 1.65 3.35 2 4.70 0.35 7.30 3.45 6.95 8.15 -0.35 5.30 -4.50 8.15 -12.45 8.50 -2.95 0.10 -5.45 -0.05 -6.90 -0.50z m13.15 -2.95 c2.90 -1.70 4.15 -4.45 3.35 -7.35 -0.85 -3.05 -2.45 -4 -6.90 -4 l-3.75 0 0.30 -2.30 c0.30 -2.90 1.70 -4.80 3.95 -5.45 0.95 -0.25 2.10 -0.85 2.55 -1.35 0.45 -0.45 1.10 -0.90 1.45 -1.05 1 -0.35 -0.15 -1.95 -2.15 -2.95 -1.25 -0.70 -2.90 -0.90 -6.55 -0.90 -5.35 0 -8.65 0.90 -9.15 2.55 -0.35 1.10 0.05 1.95 1 1.95 0.35 0 0.75 0.35 0.95 0.75 0.15 0.40 0.85 0.75 1.55 0.75 3.20 0 5.75 2.85 5.75 6.45 l0 1.45 -3.95 0.15 c-4.45 0.25 -5.65 0.90 -6.60 3.80 -0.80 2.45 0.10 5.25 2.15 6.70 2.75 2 4.85 2.50 9.50 2.30 3.55 -0.20 4.75 -0.45 6.55 -1.50z"/>
  <path d="M244.75 239.15 c-3.50 -1.85 -5.25 -4.50 -5.25 -8.10 0 -3.75 1.65 -6.30 5.20 -8.15 4.80 -2.45 11.05 0.75 12.30 6.35 0.50 2.20 -0.20 5.40 -1.60 7.30 -2.25 3.05 -7.45 4.30 -10.65 2.60z m6.80 -2.80 c2.40 -1.60 3.40 -4.55 2.40 -7.15 -1.05 -2.75 -3.55 -4.35 -6.35 -4.05 -2.75 0.30 -4.35 1.75 -5.05 4.65 -0.70 2.85 0.20 5.25 2.55 6.70 2.15 1.30 4.35 1.25 6.45 -0.15z"/>
  <path d="M308.05 239.25 c-3.40 -0.95 -5.35 -2.35 -6.55 -4.75 -2.50 -4.90 0.05 -10.50 5.15 -11.35 1.60 -0.25 1.85 -0.15 1.85 0.70 0 0.70 -0.50 1.15 -1.60 1.45 -1.85 0.55 -3.90 3.20 -3.90 5.05 0 2.40 1.35 4.50 3.85 6 2.20 1.30 2.80 1.40 7.40 1.40 4.50 0 5.20 -0.15 7.25 -1.35 2.80 -1.60 3.75 -3.35 3.65 -6.35 -0.05 -1.85 -0.35 -2.55 -1.60 -3.65 -1.40 -1.25 -1.95 -1.40 -5.30 -1.40 l-3.75 0 0 -1.85 c0 -2.35 1.55 -5 3.40 -5.70 0.75 -0.30 2.35 -0.45 3.60 -0.30 2.65 0.30 4.50 2.10 4.50 4.40 0 1.20 -0.20 1.45 -1.25 1.45 -1.05 0 -1.25 -0.25 -1.25 -1.50 0 -1.70 -1.15 -2.50 -3.50 -2.50 -1.25 0 -1.65 0.30 -2.25 1.60 -0.35 0.90 -0.55 1.80 -0.45 2 0.15 0.25 1.45 0.40 2.90 0.40 5 0 8.25 3.75 7.65 8.75 -0.30 2.95 -1.85 4.95 -5.15 6.55 -3.45 1.70 -10.35 2.15 -14.65 0.95z"/>
  <path d="M153 238.75 c0 -0.30 1.45 -1.05 4.45 -2.20 1.40 -0.60 2.55 -0.80 2.55 -0.55 0 0.30 -0.30 0.50 -0.65 0.50 -0.35 0 -1.85 0.55 -3.25 1.25 -2.65 1.30 -3.10 1.40 -3.10 1z"/>
  <path d="M161.05 189.25 c0 -26.05 0.15 -46.30 0.40 -46.70 0.60 -0.95 0.70 89.25 0.10 91.20 -0.30 0.95 -0.50 -15.75 -0.50 -44.50z"/>
  <path d="M343.50 231.20 c0 -0.40 0.35 -0.85 0.75 -1 0.55 -0.25 0.65 -0.50 0.25 -0.95 -0.35 -0.40 -0.20 -0.85 0.50 -1.50 0.55 -0.50 1 -0.65 1 -0.35 0 0.35 0.35 0.60 0.80 0.60 0.55 0 0.70 0.25 0.50 0.80 -0.15 0.45 -0.30 1 -0.30 1.25 0 0.25 -0.35 0.45 -0.75 0.45 -0.40 0 -0.75 0.20 -0.75 0.45 0 0.25 -0.45 0.55 -1 0.70 -0.65 0.15 -1 0 -1 -0.45z"/>
  <path d="M309 224 c0 -0.65 0.35 -1 1 -1 0.75 0 1 -0.35 1 -1.20 0 -1.60 -1.25 -2.80 -2.90 -2.80 -1.85 0 -2.55 0.55 -3.05 2.30 -0.25 0.95 -0.75 1.50 -1.50 1.60 -1 0.15 -1.10 0 -0.95 -1.70 0.25 -3.40 4.25 -5.10 8.15 -3.50 2 0.85 2.55 1.75 3 4.95 l0.35 2.35 -2.55 0 c-2.20 0 -2.55 -0.15 -2.55 -1z"/>
  <path d="M346.55 220.55 c-0.35 -0.25 -0.55 -0.65 -0.35 -0.95 0.15 -0.30 0 -0.60 -0.30 -0.70 -0.40 -0.15 -0.20 -0.50 0.55 -0.85 0.90 -0.50 1.10 -0.50 0.80 -0.05 -0.20 0.35 -0.10 0.80 0.25 1 0.40 0.25 0.45 0.65 0.20 1.15 -0.30 0.55 -0.70 0.65 -1.15 0.40z"/>
  <path d="M329.50 218.70 c0 -0.45 0.35 -0.70 0.85 -0.60 1.25 0.25 1.40 1.40 0.20 1.40 -0.60 0 -1.05 -0.30 -1.05 -0.80z"/>
  <path d="M171 139.50 c0 -2.60 -0.35 -2.90 -2.05 -2 -0.50 0.30 -0.95 0.40 -0.95 0.30 0 -0.35 3.65 -2.80 4.10 -2.80 0.25 0 0.40 1.60 0.40 3.50 0 2.80 -0.15 3.50 -0.75 3.50 -0.55 0 -0.75 -0.60 -0.75 -2.50z"/>
  <path d="M131.10 122.15 c0.15 -1.85 0.20 -1.90 2.40 -2.15 1.40 -0.15 2.70 -0.70 3.40 -1.40 1.05 -1.05 1.10 -1.50 1.10 -9.35 0 -7 0.10 -8.25 0.75 -8.25 0.65 0 0.75 1.40 0.75 9.50 0 8.60 -0.10 9.55 -0.85 9.85 -0.50 0.20 -2.20 1.10 -3.75 2 -3.60 2.10 -4 2.10 -3.80 -0.20z"/>
  <path d="M128.65 110.25 c0 -1.10 0.10 -1.50 0.20 -0.85 0.10 0.60 0.10 1.50 0 2 -0.15 0.45 -0.25 -0.05 -0.20 -1.15z"/>
  <path d="M34 105.65 c0 -0.35 0.40 -0.65 0.90 -0.65 0.45 0 1.35 -0.15 2 -0.30 0.80 -0.25 1.10 -0.10 1.10 0.45 0 0.50 -0.65 0.80 -2 0.95 -1.40 0.10 -2 0 -2 -0.45z"/>
  <path d="M87.90 106.15 c-35.90 -0.15 -40.90 -0.25 -40.90 -0.90 0 -0.65 2.15 -0.75 15.90 -0.75 8.70 -0.05 26.30 -0.15 39.10 -0.30 12.80 -0.15 24.10 -0.15 25.10 0.05 1.40 0.25 1.80 0.60 1.75 1.30 -0.05 0.50 -0.05 0.90 -0.10 0.85 0 -0.10 -18.40 -0.20 -40.85 -0.25z"/>
  <path d="M38.50 105.25 c0 -0.60 0.65 -0.75 3 -0.75 2.35 0 3 0.15 3 0.75 0 0.60 -0.65 0.75 -3 0.75 -2.35 0 -3 -0.15 -3 -0.75z"/>
  <path d="M137.80 96.40 c-0.50 -1.95 -0.35 -3.40 0.40 -3.40 0.70 0 1.30 1.45 1.30 3.40 0 0.60 -0.30 1.10 -0.70 1.10 -0.35 0 -0.80 -0.50 -1 -1.10z"/>
  <path d="M124 91.25 c0 -0.40 0.35 -0.75 0.75 -0.75 0.40 0 0.75 0.20 0.75 0.45 0 0.25 -0.35 0.55 -0.75 0.75 -0.45 0.15 -0.75 0 -0.75 -0.45z"/>
  <path d="M136 89.70 c0 -0.85 1.10 -0.70 1.40 0.20 0.10 0.35 -0.15 0.60 -0.60 0.60 -0.45 0 -0.80 -0.35 -0.80 -0.80z"/>
  <path d="M135.25 87.50 c0.15 -0.25 -0.05 -0.50 -0.45 -0.50 -0.45 0 -0.80 -0.20 -0.80 -0.50 0 -0.70 0.65 -0.65 1.40 0.10 0.75 0.75 0.75 1.40 0.05 1.40 -0.25 0 -0.35 -0.20 -0.20 -0.50z"/>
  <path d="M131.45 84.35 c-0.70 -0.35 -1.60 -0.85 -2 -1.15 -0.40 -0.35 -1.40 -0.75 -2.30 -0.90 -0.85 -0.20 -1.85 -0.70 -2.20 -1.10 -0.45 -0.55 -0.35 -0.70 0.70 -0.70 0.70 0 1.40 0.20 1.60 0.45 0.15 0.25 0.90 0.60 1.75 0.80 0.80 0.15 2.20 0.95 3.10 1.80 1.75 1.50 1.55 1.75 -0.65 0.80z"/>
 </g>
 <g fill="#16224c">
  <path d="M43.90 312.15 c-1.25 -0.30 -1.10 -1 0.25 -1.35 0.60 -0.15 17.80 -0.30 38.25 -0.30 35.15 0 37.15 0.05 37 0.90 -0.15 0.80 -2.35 0.85 -37.40 0.90 -20.50 0.05 -37.65 -0.05 -38.10 -0.15z"/>
  <path d="M38.80 310.70 c-0.20 -0.55 -0.05 -0.70 0.55 -0.60 0.45 0.10 0.90 0.45 1.05 0.80 0.30 0.90 -1.25 0.75 -1.60 -0.20z"/>
  <path d="M33.55 309.55 c-1.50 -0.75 -2.45 -1.55 -2.15 -1.75 0.75 -0.45 3.05 0.55 3.40 1.45 0.15 0.40 0.50 0.60 0.75 0.45 0.25 -0.15 0.45 0 0.45 0.30 0 0.35 0.35 0.50 0.75 0.30 0.40 -0.15 0.75 -0.05 0.75 0.20 0 0.80 -1.10 0.55 -3.95 -0.95z"/>
  <path d="M132.50 307.10 c0 -0.35 -0.35 -0.60 -0.80 -0.60 -0.60 0 -0.50 -0.25 0.45 -1 0.70 -0.55 1.50 -1 1.80 -1 0.90 0 0.65 1.25 -0.45 2.25 -0.55 0.50 -1 0.65 -1 0.35z"/>
  <path d="M135.10 303.70 c-0.55 -0.60 -0.50 -0.70 0.25 -0.70 0.55 0 0.70 -0.15 0.35 -0.40 -0.85 -0.55 1.40 -5.65 2.25 -5.15 0.75 0.50 0.20 2.95 -1.25 5.35 -0.80 1.30 -1.05 1.45 -1.60 0.90z"/>
  <path d="M26.30 303.20 c-0.20 -0.50 -0.05 -0.70 0.30 -0.60 0.75 0.25 1.15 1.40 0.50 1.40 -0.25 0 -0.65 -0.35 -0.80 -0.80z"/>
  <path d="M72.10 299.20 c0.15 -0.85 1.05 -1.05 1.30 -0.30 0.05 0.25 -0.20 0.60 -0.65 0.80 -0.55 0.20 -0.75 0.05 -0.65 -0.50z"/>
  <path d="M23.45 292.70 c0 -1.90 -0.05 -47.30 -0.05 -100.95 -0.05 -89.65 0 -97.65 0.80 -99.25 0.75 -1.65 0.80 -1.65 0.45 -0.25 -0.25 0.85 -0.35 8.05 -0.30 16 0.45 85.70 0.10 186.95 -0.65 187.70 -0.10 0.10 -0.20 -1.35 -0.25 -3.25z"/>
  <path d="M69.50 292.25 c0 -1.30 0.20 -1.75 0.90 -1.80 0.50 0 0.60 -0.15 0.25 -0.30 -1 -0.35 -0.75 -1.15 0.35 -1.15 0.85 0 0.90 0.15 0.50 1.30 -0.30 0.70 -0.50 1.80 -0.50 2.50 0 0.75 -0.30 1.20 -0.75 1.20 -0.50 0 -0.75 -0.55 -0.75 -1.75z"/>
  <path d="M88.55 285.05 c-0.35 -0.25 -0.55 -0.80 -0.45 -1.30 0.15 -0.80 0.25 -0.75 1.05 0.15 0.95 1.05 0.55 1.85 -0.60 1.15z"/>
  <path d="M85.15 283.15 c-0.90 -0.35 -1.65 -0.90 -1.65 -1.20 0 -0.35 0.60 -0.40 1.65 -0.20 1.90 0.40 2.45 0.80 1.95 1.55 -0.25 0.40 -0.85 0.35 -1.95 -0.15z"/>
  <path d="M33.30 274.55 c-0.20 -0.25 0 -0.60 0.30 -0.70 0.40 -0.15 0.30 -0.30 -0.20 -0.30 -0.85 -0.05 -0.90 -4.25 -1 -72.90 -0.15 -85.60 -0.15 -90.65 0.85 -90.65 0.35 0 0.75 -0.25 0.85 -0.60 0.10 -0.30 0.20 36.50 0.20 81.75 -0.05 45.25 0.15 82.45 0.35 82.70 0.25 0.20 9.65 0.40 20.90 0.40 11.25 0 20.45 0.15 20.45 0.40 0 0.50 -42.40 0.45 -42.70 -0.10z"/>
  <path d="M76.50 274.50 c0 -0.25 0.90 -0.50 1.95 -0.50 1.10 0 2.15 0.25 2.30 0.50 0.20 0.30 -0.60 0.50 -1.95 0.50 -1.25 0 -2.30 -0.20 -2.30 -0.50z"/>
  <path d="M88.50 274.50 c-0.50 -0.30 1 -0.40 4.40 -0.30 2.85 0.10 5.30 0.35 5.45 0.50 0.50 0.50 -9.05 0.30 -9.85 -0.20z"/>
  <path d="M103.15 274.65 c1 -0.10 2.70 -0.10 3.75 0 1 0.10 0.15 0.20 -1.90 0.20 -2.05 0 -2.90 -0.10 -1.85 -0.20z"/>
  <path d="M115.40 274.40 c0.45 -0.45 0.75 -0.45 1.20 0 0.45 0.45 0.35 0.60 -0.60 0.60 -0.95 0 -1.05 -0.15 -0.60 -0.60z"/>
  <path d="M117.65 274.70 c0.45 -0.45 4.85 -0.50 4.85 -0.05 0 0.20 -1.15 0.35 -2.60 0.35 -1.40 0 -2.40 -0.15 -2.25 -0.30z"/>
  <path d="M124.60 274.45 c0.90 -0.35 1.65 -0.35 2.25 0 0.70 0.40 0.45 0.50 -1.35 0.50 -2.10 -0.05 -2.15 -0.05 -0.90 -0.50z"/>
  <path d="M137.20 268.70 c0.15 -0.45 0.30 -0.90 0.30 -1 0 -0.10 0.50 -0.15 1.15 -0.15 0.80 0.05 0.90 0.10 0.25 0.30 -0.50 0.10 -0.90 0.55 -0.90 0.95 0 0.40 -0.25 0.70 -0.55 0.70 -0.30 0 -0.40 -0.35 -0.25 -0.80z"/>
  <path d="M187.65 263.15 c-0.35 -0.10 -0.65 -0.55 -0.65 -0.95 0 -0.40 -0.35 -0.70 -0.80 -0.70 -0.50 0 -0.70 0.30 -0.50 0.75 0.15 0.40 0.15 0.75 0 0.75 -0.10 0 -0.45 -0.60 -0.75 -1.35 -0.50 -1.30 -0.60 -1.35 -1.15 -0.50 -0.80 1.05 -1.30 1.10 -1.30 0.10 0 -0.40 -0.20 -0.75 -0.50 -0.75 -0.25 0 -0.50 0.25 -0.50 0.50 0 0.30 -0.35 0.50 -0.75 0.50 -0.40 0 -0.75 -0.35 -0.75 -0.75 0 -0.40 -0.30 -0.75 -0.60 -0.75 -0.45 -0.05 -0.40 -0.20 0.10 -0.45 0.85 -0.55 3.50 -0.15 3.50 0.50 0 0.60 1.50 -0.05 2.90 -1.25 2.40 -2.05 2.60 -3.15 2.60 -12.80 0 -7.45 0.10 -9 0.70 -9 0.40 0 0.85 -0.30 0.95 -0.60 0.40 -0.95 0.40 22.20 0.05 24.05 -0.20 0.90 -0.65 1.55 -1.05 1.55 -0.45 0 -0.65 0.30 -0.45 0.75 0.30 0.75 0.05 0.85 -1.05 0.40z"/>
  <path d="M174 259.75 c0 -0.40 -0.35 -0.75 -0.75 -0.75 -0.40 0 -0.75 0.25 -0.75 0.50 0 0.80 -1.50 0.60 -2.40 -0.35 -0.80 -0.80 -0.85 -0.75 -1 0.05 -0.20 1 -2.10 0.65 -2.75 -0.50 -0.55 -0.95 -1.85 -0.90 -1.85 0.10 0 0.65 -0.35 0.75 -1.60 0.50 -0.90 -0.15 -1.80 -0.60 -2 -0.95 -0.30 -0.45 -0.50 -0.45 -0.85 0.10 -0.35 0.55 -0.50 0.50 -0.70 -0.25 -0.20 -0.80 -0.25 -0.85 -0.30 -0.05 -0.05 0.85 -1.05 1.25 -1.05 0.40 0 -0.65 -2.15 -1.10 -2.55 -0.50 -0.40 0.65 -8.90 0.90 -9.10 0.25 -0.10 -0.25 -0.95 -0.80 -1.90 -1.15 l-1.70 -0.65 1.65 0.25 c0.85 0.10 1.60 0 1.60 -0.25 0 -0.25 0.50 -0.40 1.15 -0.40 2.25 0.15 3.85 -0.10 3.85 -0.60 0 -0.25 -0.35 -0.50 -0.75 -0.50 -0.40 0 -0.75 -0.20 -0.75 -0.50 0 -0.25 -0.40 -0.50 -0.85 -0.50 -0.45 0 -0.70 -0.10 -0.55 -0.25 0.10 -0.15 1.90 -0.35 3.95 -0.50 2.05 -0.15 4.10 -0.40 4.60 -0.55 0.45 -0.15 0.85 -0.05 0.85 0.25 0 0.30 -0.55 0.55 -1.25 0.55 -0.90 0 -1.15 0.20 -0.95 0.75 0.40 1 3.50 1 3.85 0.05 0.20 -0.45 -0.05 -0.85 -0.55 -0.95 -0.45 -0.15 -0.10 -0.25 0.85 -0.30 0.95 0 1.60 0.10 1.45 0.25 -0.40 0.35 1.10 1.90 2.20 2.35 0.95 0.35 1.50 -1.15 0.80 -2.35 -0.40 -0.70 -0.05 -0.80 2.70 -0.80 7.10 -0.10 11.15 -0.55 11.80 -1.35 0.70 -0.95 0.80 -0.25 0.15 0.80 -0.50 0.75 -7.05 1.45 -12 1.25 -1.95 -0.05 -2.10 0 -1.35 0.60 0.50 0.35 0.75 0.85 0.55 1.15 -0.15 0.30 -0.05 0.55 0.20 0.55 0.30 0 0.55 0.35 0.55 0.75 0 0.45 0.45 0.75 1.25 0.75 0.70 0 1.25 0.20 1.25 0.45 0 0.25 0.95 0.55 2.15 0.70 2.80 0.35 6.30 1.20 5.25 1.30 -0.50 0 -0.90 0.30 -0.90 0.55 0 0.30 -0.35 0.50 -0.75 0.50 -0.40 0 -0.75 -0.35 -0.75 -0.75z m-9.60 -2.60 c-0.75 -0.10 -2.10 -0.10 -3 0 -0.90 0.10 -0.30 0.20 1.35 0.20 1.65 0 2.40 -0.10 1.65 -0.20z"/>
  <path d="M287.50 254.05 c-0.50 -0.95 0.20 -2.05 1.30 -2.05 0.30 0 0.85 -0.35 1.25 -0.80 0.55 -0.70 0.65 -0.70 1.10 0.05 0.35 0.70 0.90 0.80 2.70 0.50 1.70 -0.25 2.20 -0.15 2.10 0.35 -0.05 0.35 -0.05 1.10 0 1.65 0.05 0.85 0.15 0.90 0.55 0.25 0.30 -0.50 0.50 -0.55 0.50 -0.10 0 0.30 0.60 0.60 1.30 0.60 0.90 0 1.25 -0.20 1.05 -0.70 -0.55 -1.35 1.25 -2.15 4.40 -2 1.95 0.10 3.10 -0.05 3.35 -0.45 0.30 -0.45 0.50 -0.45 1 0.05 0.65 0.65 3.40 0.85 3.40 0.20 0 -0.25 0.35 -0.45 0.75 -0.45 0.40 0 0.75 0.20 0.75 0.45 0 0.20 0.85 0.40 1.95 0.40 1.55 0 2 -0.20 2.20 -1.05 0.40 -1.50 -0.15 -4.05 -0.85 -3.80 -0.30 0.10 -1.05 0.05 -1.65 -0.20 -0.90 -0.35 -1.15 -0.20 -1.40 1.05 -0.45 2.05 -0.90 2.15 -2 0.45 -1 -1.45 -2.25 -1.95 -2.25 -0.85 0 0.30 -0.30 0.20 -0.65 -0.30 -0.95 -1.25 -3.80 -1.80 -5.40 -1 -1.20 0.60 -1.35 0.55 -1.60 -0.30 -0.15 -0.65 -0.80 -1 -2.15 -1.15 -1.10 -0.10 1.30 -0.25 5.30 -0.35 4 -0.10 8.85 -0.20 10.75 -0.30 4.65 -0.10 6.25 0.20 5.90 1.05 -0.10 0.40 -0.50 0.65 -0.80 0.60 -0.35 -0.05 -0.55 0.20 -0.45 0.55 0.05 0.30 -0.25 0.60 -0.65 0.60 -0.50 0 -0.75 0.55 -0.75 1.75 0 1.20 0.25 1.75 0.75 1.75 0.50 0 0.70 0.45 0.60 1.50 -0.05 0.80 -0.30 1.50 -0.50 1.50 -0.25 0 -0.75 0.35 -1.15 0.75 -1.05 1.05 -3.50 0.95 -4.20 -0.10 -0.45 -0.75 -0.55 -0.75 -0.35 -0.10 0.25 0.75 -0.95 0.85 -12.70 0.85 -11.90 0.05 -13 -0.05 -13.45 -0.85z"/>
  <path d="M325.55 253.85 c1.55 -1.65 2.90 -4.70 3.05 -6.90 0.10 -2.20 0.45 -2.30 3.15 -1 1.90 0.90 1.95 1 1.80 3.20 -0.15 2.35 0.55 3.45 1.35 2.05 0.40 -0.75 0.50 -0.75 0.75 0 0.20 0.55 0.95 0.80 2.10 0.80 1.30 0 1.70 -0.15 1.45 -0.60 -0.30 -0.50 -0.20 -0.50 0.40 0 1.25 1 4.55 0.60 4.70 -0.55 0.20 -1.55 0.70 -1.60 0.70 -0.15 0 0.90 0.20 1.30 0.65 1.15 0.30 -0.10 0.55 -0.45 0.50 -0.75 -0.05 -0.25 0.35 -0.40 0.85 -0.25 0.55 0.15 1 0.70 1 1.20 0 0.55 0.20 0.95 0.40 0.95 0.80 0 1.60 -1.20 1.60 -2.40 0 -0.70 0.20 -1.05 0.55 -0.80 0.30 0.15 0.40 0.75 0.30 1.25 -0.20 0.70 -0.05 0.95 0.55 0.85 0.50 -0.10 1 -0.35 1.20 -0.60 0.20 -0.30 0.60 -0.25 1 0.10 0.50 0.40 2.40 0.50 6.05 0.30 4.65 -0.20 5.35 -0.10 5.35 0.55 0 0.55 0.30 0.75 0.90 0.55 3.15 -0.85 4.05 -0.85 5.05 0.15 0.60 0.60 1.05 1.25 1.05 1.50 0 0.30 -9.80 0.50 -23.75 0.50 l-23.80 0.05 1.10 -1.15z"/>
  <path d="M324.90 251.65 c-0.50 -0.10 -0.90 -0.45 -0.90 -0.75 0 -0.25 0.40 -0.35 0.90 -0.20 0.70 0.25 0.70 0.20 -0.10 -0.45 -0.55 -0.40 -0.75 -0.75 -0.45 -0.75 0.65 0 1.30 0.90 1.45 1.90 0.05 0.30 0.10 0.55 0.05 0.55 -0.05 -0.05 -0.50 -0.15 -0.95 -0.30z"/>
  <path d="M291.75 250.50 c-0.20 -0.35 -0.15 -0.80 0.10 -1.05 0.60 -0.60 2.25 0 2 0.75 -0.25 0.75 -1.70 0.95 -2.10 0.30z"/>
  <path d="M299.85 250.70 c-0.40 -0.40 0.05 -1.20 0.70 -1.20 0.25 0 0.45 0.35 0.45 0.75 0 0.75 -0.60 1 -1.15 0.45z"/>
  <path d="M313.85 250.65 c-0.15 -0.25 -0.10 -0.75 0.15 -1.10 0.50 -0.85 2.15 -0.30 1.90 0.60 -0.30 0.75 -1.70 1.10 -2.05 0.50z"/>
  <path d="M341.35 250.70 c-0.45 -0.50 0.20 -1.70 0.95 -1.70 0.40 0 0.70 0.45 0.70 1 0 0.95 -0.95 1.35 -1.65 0.70z"/>
  <path d="M354.25 250.50 c-0.20 -0.35 -0.15 -0.80 0.15 -1.10 0.70 -0.70 2.25 -0.10 2 0.75 -0.30 0.80 -1.70 1.05 -2.15 0.35z"/>
  <path d="M367.30 250.25 c-0.30 -0.85 0.45 -1.45 1.20 -1 0.70 0.45 0.60 1.10 -0.20 1.40 -0.40 0.15 -0.85 -0.05 -1 -0.40z"/>
  <path d="M284 249 c0 -1 0.25 -1.50 0.75 -1.50 0.50 0 0.75 0.50 0.75 1.50 0 1 -0.25 1.50 -0.75 1.50 -0.50 0 -0.75 -0.50 -0.75 -1.50z"/>
  <path d="M289.85 249 c-1.10 -1.30 -1.10 -2 0.10 -2 1.05 0 1.80 1.30 1 1.75 -0.25 0.20 -0.35 0.55 -0.20 0.80 0.50 0.80 0 0.50 -0.90 -0.55z"/>
  <path d="M294 248 c0 -1.15 0.75 -1.35 1.15 -0.30 0.15 0.40 -0.05 0.85 -0.45 1 -0.45 0.20 -0.70 -0.05 -0.70 -0.70z"/>
  <path d="M149.35 247.80 c-0.30 -0.75 0.05 -1.30 0.75 -1.30 0.55 0 0.50 1.35 -0.05 1.70 -0.25 0.15 -0.55 0 -0.70 -0.40z"/>
  <path d="M152.30 247.20 c-0.40 -1.05 -0.15 -1.35 1.10 -1.10 0.90 0.15 0.90 0.20 0.10 1.05 -0.80 0.85 -0.90 0.85 -1.20 0.05z"/>
  <path d="M155.75 246.85 c-1.25 -1.45 -1.10 -1.60 1.30 -1.45 1.70 0.15 2.45 0.40 2.45 0.90 0 0.40 -0.30 0.70 -0.60 0.70 -0.35 0 -1.10 0.10 -1.65 0.25 -0.55 0.15 -1.25 -0.05 -1.50 -0.40z"/>
  <path d="M163.05 246.10 c-0.40 -0.35 -1.20 -0.60 -1.85 -0.45 -0.65 0.10 -1.20 0.05 -1.20 -0.20 0 -0.20 2.45 -0.45 5.40 -0.55 5 -0.15 5.40 -0.10 5.20 0.75 -0.10 0.45 -0.45 0.85 -0.80 0.90 -3.80 0.35 -6.20 0.20 -6.75 -0.45z"/>
  <path d="M137.80 245.50 c1.25 -1.25 4.65 -2.40 3.70 -1.25 -0.35 0.40 -1.15 0.75 -1.85 0.75 -0.65 0 -1.30 0.35 -1.45 0.75 -0.20 0.40 -0.55 0.75 -0.85 0.75 -0.30 0 -0.10 -0.45 0.45 -1z"/>
  <path d="M290.30 244.50 c0.35 -0.35 0.95 -0.35 1.75 -0.05 1.15 0.45 1.10 0.50 -0.50 0.50 -1.20 0.05 -1.60 -0.10 -1.25 -0.45z"/>
  <path d="M170.20 240.70 c-0.15 -1.25 -0.10 -2.75 0.15 -3.35 0.40 -0.85 0.55 -0.40 0.60 2.30 0.05 1.85 -0.05 3.35 -0.15 3.35 -0.15 0 -0.40 -1.05 -0.60 -2.30z"/>
  <path d="M144.80 242 c0.65 -0.60 10.80 -4.60 11.05 -4.30 0.10 0.10 -0.85 0.60 -2.20 1.10 -1.30 0.50 -2.50 1.05 -2.65 1.30 -0.15 0.20 -1.70 0.80 -3.45 1.35 -1.75 0.55 -3 0.80 -2.75 0.55z"/>
  <path d="M310.15 239.65 c-0.85 -0.30 -0.85 -1.65 0 -1.65 0.35 0 0.65 0.45 0.65 1 0 0.55 0 1 -0.05 0.95 0 0 -0.30 -0.15 -0.60 -0.30z"/>
  <path d="M323.50 225.45 c0 -0.55 0.25 -0.85 0.50 -0.70 0.30 0.15 0.50 0.65 0.50 1.05 0 0.40 -0.20 0.70 -0.50 0.70 -0.25 0 -0.50 -0.45 -0.50 -1.05z"/>
  <path d="M306.50 224.60 c0 -0.35 -0.20 -0.50 -0.50 -0.35 -0.25 0.15 -0.50 0.10 -0.50 -0.15 0 -0.55 1.70 -1.10 3.65 -1.10 1 0 1.35 0.25 1.35 0.95 0 0.75 -0.45 1 -2 1.15 -1.45 0.10 -2 0 -2 -0.50z"/>
  <path d="M321.35 224.75 c-0.60 -0.55 -0.85 -0.60 -1 -0.10 -0.15 0.35 -0.30 0.25 -0.30 -0.25 -0.05 -0.75 0.35 -0.90 2.10 -0.85 1.15 0 1.80 0.15 1.50 0.30 -0.35 0.10 -0.65 0.55 -0.65 0.95 0 0.90 -0.75 0.90 -1.65 -0.05z"/>
  <path d="M312 224.50 c0 -0.25 0.35 -0.50 0.75 -0.50 0.40 0 0.75 0.25 0.75 0.50 0 0.30 -0.35 0.50 -0.75 0.50 -0.40 0 -0.75 -0.20 -0.75 -0.50z"/>
  <path d="M318.10 224.45 c0.10 -0.30 0.40 -0.50 0.65 -0.50 0.25 0 0.55 0.20 0.65 0.50 0.10 0.30 -0.20 0.55 -0.65 0.55 -0.45 0 -0.75 -0.25 -0.65 -0.55z"/>
  <path d="M312 222.75 c0 -0.40 0.35 -0.75 0.75 -0.75 0.40 0 0.75 0.35 0.75 0.75 0 0.40 -0.35 0.75 -0.75 0.75 -0.40 0 -0.75 -0.35 -0.75 -0.75z"/>
  <path d="M308.65 219.10 c-0.65 -0.10 -1.15 -0.40 -1.15 -0.65 0 -0.75 1.50 -1.15 2.10 -0.55 0.75 0.75 0.30 1.35 -0.95 1.20z"/>
  <path d="M320.40 219.15 c-1.05 -0.10 -1.90 -0.40 -1.90 -0.70 0 -0.25 -0.05 -0.60 -0.10 -0.75 -0.30 -0.65 3.80 -0.60 5.05 0.05 0.95 0.50 1.05 0.70 0.45 0.75 -0.50 0 -0.90 0.25 -0.90 0.50 0 0.30 -0.15 0.45 -0.35 0.40 -0.25 -0.05 -1.25 -0.15 -2.25 -0.25z"/>
  <path d="M190 151.60 c0 -0.35 -0.50 -0.60 -1.10 -0.60 -1.15 -0.05 -1.15 -0.05 -0.15 -0.80 0.90 -0.65 1 -0.65 1.35 0.35 0.25 0.60 0.30 1.20 0.15 1.35 -0.15 0.15 -0.25 0 -0.25 -0.30z"/>
  <path d="M169.70 136.55 c1.05 -1.15 1.30 -1.30 1.30 -0.55 0 0.25 -0.50 0.75 -1.10 1.05 -1.15 0.60 -1.15 0.60 -0.20 -0.50z"/>
  <path d="M128.50 125.05 c0 -0.60 0.30 -1.05 0.70 -1.05 1.15 0 1.45 -1.55 0.30 -1.85 -1 -0.25 -1.30 -1.15 -0.65 -1.80 0.15 -0.20 0.65 -0.10 1 0.25 0.50 0.40 0.85 0.40 1.05 0.05 0.35 -0.55 5.10 -1.15 5.10 -0.60 0 0.15 -0.75 0.65 -1.70 1.10 -1 0.45 -1.65 1.15 -1.60 1.60 0 0.45 -0.85 1.35 -2.05 2.10 -2.10 1.25 -2.15 1.25 -2.15 0.20z"/>
  <path d="M138 111.75 c0 -0.80 0.30 -1.25 0.75 -1.25 0.45 0 0.75 0.45 0.75 1.25 0 0.80 -0.30 1.25 -0.75 1.25 -0.45 0 -0.75 -0.45 -0.75 -1.25z"/>
  <path d="M36.50 105.25 c0 -0.60 1 -0.75 6 -0.75 5 0 6 0.15 6 0.75 0 0.95 -5.30 1.10 -5.65 0.15 -0.20 -0.50 -0.30 -0.50 -0.30 0 -0.05 0.30 -0.50 0.60 -1 0.60 -0.55 0 -1.10 -0.30 -1.20 -0.60 -0.20 -0.50 -0.30 -0.50 -0.30 0 -0.05 0.90 -3.55 0.80 -3.55 -0.15z"/>
  <path d="M128 105.60 c0 -0.35 -0.65 -0.60 -1.50 -0.60 -0.80 0 -1.50 -0.25 -1.50 -0.55 0 -0.40 0.60 -0.45 1.90 -0.20 2.25 0.40 2.45 0.60 1.70 1.35 -0.45 0.45 -0.60 0.45 -0.60 0z"/>
  <path d="M63.90 104.65 c0.60 -0.10 1.50 -0.10 2 0 0.45 0.15 -0.05 0.25 -1.15 0.20 -1.10 0 -1.50 -0.10 -0.85 -0.20z"/>
  <path d="M68.40 104.65 c0.90 -0.10 2.25 -0.10 3 0 0.75 0.10 0 0.20 -1.65 0.20 -1.65 0 -2.25 -0.10 -1.35 -0.20z"/>
  <path d="M84 104.70 c1.70 -0.35 5.40 -0.40 5.15 -0.05 -0.10 0.20 -1.50 0.30 -3.05 0.30 -1.55 -0.05 -2.50 -0.15 -2.10 -0.25z"/>
  <path d="M101.25 104.50 c-4.65 -0.20 -2.20 -0.35 8.45 -0.40 8.25 -0.05 14.85 0 14.75 0.10 -0.35 0.35 -16.55 0.55 -23.20 0.30z"/>
  <path d="M138 104 c0 -0.25 0.35 -0.50 0.75 -0.50 0.40 0 0.75 0.25 0.75 0.50 0 0.30 -0.35 0.50 -0.75 0.50 -0.40 0 -0.75 -0.20 -0.75 -0.50z"/>
  <path d="M138 100.50 c0 -1.45 0.20 -2 0.75 -2 0.55 0 0.75 0.55 0.75 2 0 1.45 -0.20 2 -0.75 2 -0.55 0 -0.75 -0.55 -0.75 -2z"/>
  <path d="M137.75 96.20 c-0.35 -2.10 -0.15 -2.50 1.10 -1.95 0.85 0.40 0.85 0.40 0.05 0.60 -1.10 0.25 -1.20 1.15 -0.15 1.15 0.40 0 0.75 0.45 0.75 1 0 1.75 -1.35 1.10 -1.75 -0.80z"/>
  <path d="M64.50 92 c0 -1.50 0.20 -2 0.80 -2 0.40 0 0.65 -0.20 0.50 -0.45 -0.60 -0.90 1.60 -1.05 15.75 -1.05 12.35 0 14.45 0.10 14.45 0.75 0 0.45 0.30 0.60 0.80 0.40 0.55 -0.20 0.75 -0.10 0.65 0.30 -0.20 0.60 -6.25 0.70 -21.95 0.45 -1.80 -0.05 -4.65 0 -6.35 0 l-3.15 0.10 0 1.75 c0 1.20 -0.25 1.75 -0.75 1.75 -0.55 0 -0.75 -0.55 -0.75 -2z"/>
  <path d="M80 83.50 c0 -1.15 -0.20 -1.50 -1 -1.50 -0.55 0 -1 -0.20 -1 -0.50 0 -0.25 -0.45 -0.50 -1 -0.50 -1.10 0 -1.40 -0.95 -0.35 -1.10 0.30 -0.10 -6.80 -0.25 -15.90 -0.40 -11.95 -0.20 -5.90 -0.30 21.85 -0.40 29.10 -0.05 38.70 0.05 40 0.55 l1.65 0.60 -3 0.30 c-1.65 0.20 -6.75 0.35 -11.35 0.40 -4.65 0.05 -8.40 0.20 -8.40 0.45 0 0.20 -1.45 0.40 -3.25 0.45 -1.80 0.05 -3.25 -0.10 -3.25 -0.40 0 -0.60 -2.85 -0.60 -3.25 0.05 -0.15 0.30 -1.10 0.50 -2.05 0.50 -0.95 0 -1.70 0.25 -1.70 0.50 0 0.30 0.25 0.50 0.50 0.50 0.80 0 0.55 1.35 -0.30 1.70 -0.45 0.15 -2.45 0.30 -4.50 0.30 l-3.70 0 0 -1.50z m5 -1 c0 -0.25 -0.75 -0.50 -1.60 -0.45 -1.40 0 -1.50 0.10 -0.65 0.45 1.40 0.60 2.25 0.60 2.25 0z"/>
  <path d="M129.55 83.30 c-0.35 -0.40 -1.35 -0.85 -2.25 -1 -0.95 -0.20 -1.95 -0.60 -2.20 -0.95 -0.80 -0.95 1.40 -0.70 3 0.35 0.75 0.50 1.55 0.75 1.80 0.60 0.25 -0.15 1 0.15 1.60 0.70 l1.15 1 -1.25 0 c-0.70 0 -1.55 -0.30 -1.85 -0.70z"/>
  <path d="M34.60 81.30 c1.25 -0.75 6.85 -2.30 8.35 -2.30 1.60 0 -0.10 0.65 -3.80 1.45 -2.15 0.50 -4.35 1.05 -4.90 1.25 -0.55 0.20 -0.40 0 0.35 -0.40z"/>
 </g>
</svg>